<?xml version="1.0" encoding="UTF-8"?> <svg xmlns="http://www.w3.org/2000/svg" width="725" height="555" viewBox="0 0 725 555"> <defs> <linearGradient id="home-img-5-a" x1="50%" x2="50%" y1="100%" y2="0%"> <stop offset="0%" stop-color="gray" stop-opacity=".25"></stop> <stop offset="54%" stop-color="gray" stop-opacity=".12"></stop> <stop offset="100%" stop-color="gray" stop-opacity=".1"></stop> </linearGradient> <linearGradient id="home-img-5-b" x1="103454%" x2="103454%" y1="81284%" y2="19781%"> <stop offset="0%" stop-color="gray" stop-opacity=".25"></stop> <stop offset="54%" stop-color="gray" stop-opacity=".12"></stop> <stop offset="100%" stop-color="gray" stop-opacity=".1"></stop> </linearGradient> </defs> <g fill="none" fill-rule="evenodd" transform="translate(-19 -8)"> <ellipse cx="557.5" cy="533.5" fill="#FFC107" fill-rule="nonzero" opacity=".1" rx="73.5" ry="18.5"></ellipse> <path fill="#FFC107" fill-rule="nonzero" d="M41.3588298,391.18587 C33.0503892,394.031262 22.9660987,399.836114 24.6658408,409.063042 C25.5157118,413.739877 29.3084198,417.206312 32.9108582,420.134087 C48.298371,432.607518 65.2117393,443.07397 83.2435181,451.281304 C91.8500478,455.185004 101.002017,458.765508 107.502896,465.964539 C114.003775,473.163571 117.016378,483.227005 119.128371,492.929221 C124.084697,515.906883 125.309612,539.53157 122.756178,562.897974 C148.702614,563.392274 177.433328,562.809254 195.794348,544.133598 C206.78559,532.948483 212.677606,516.357758 225.603257,507.701176 C234.222471,501.92801 244.845859,500.495808 255.107734,499.291745 C303.677229,493.61786 352.498302,490.183111 401.570955,488.987498 C422.13276,488.486861 443.144869,488.30942 462.343075,481.148412 C481.541281,473.987403 498.969979,458.33458 502.870507,437.11138 C503.473027,433.841397 503.866251,430.235545 506.10509,427.954161 C508.102922,425.907254 511.096497,425.419291 513.893461,425.058072 L682.529435,402.244241 C691.763855,400.976806 701.321733,399.626987 709.097418,394.411492 C716.619411,389.341752 721.693268,381.242842 726.545144,373.346721 C737.663232,355.273097 749.199914,333.422516 741.500337,312.756987 C735.341943,296.242308 718.788485,286.730208 702.970736,280.82396 C687.152987,274.917713 670.123855,270.766863 657.267971,259.188844 C637.708252,241.571496 633.370105,212.325432 627.858628,186.083188 C622.871525,162.318975 615.869715,139.021865 606.928968,116.443968 C599.039121,96.5832605 589.430505,77.0077257 575.109544,61.551355 C560.788583,46.0949842 541.082991,35.138008 521.028572,35.9238177 C494.834786,36.9631145 471.793133,57.362482 445.554951,54.8276119 C423.394881,52.7046581 405.363663,34.9605671 385.410721,23.9212075 C349.988857,4.30764972 308.180277,6.03136143 269.422353,12.1467357 C228.324112,18.6169917 186.972179,29.9415242 153.674994,55.410632 C146.064208,61.2408334 138.783224,67.9709136 134.311887,76.7415644 C127.462181,90.1953877 128.052016,106.58966 124.620821,121.539057 C110.794561,181.742223 36.6655122,206.856449 21.4249147,266.62235 C16.0085725,287.839214 20.0169195,310.849497 29.9553366,330.456718 C40.6421475,351.565849 62.1109043,360.564638 73.1148314,378.682623 C65.757739,385.393692 51.100635,387.846178 41.3588298,391.18587 Z" opacity=".1"></path> <path stroke="#535461" stroke-width="2" d="M570.048906,538 C570.048906,538 563.483229,492.202347 583.20532,462.059626 C591.572731,449.471016 595.679387,434.473123 594.908263,419.319378 C594.490239,412.128852 593.420702,404.992408 591.713134,398"></path> <path fill="#FFC107" fill-rule="nonzero" d="M604.870422 379.41615C604.090378 384.795215 591.906216 399 591.906216 399 591.906216 399 584.292727 382.001142 585.053431 376.622077 585.501449 373.090885 587.854565 370.072605 591.207256 368.728728 594.559947 367.384851 598.389694 367.924822 601.222739 370.140849 604.055784 372.356876 605.450595 375.90359 604.870422 379.41615zM615.656038 411.429002C612.198037 415.550912 595 421 595 421 595 421 597.84488 402.496071 601.29675 398.399684 603.532124 395.730282 606.966128 394.504731 610.305204 395.184685 613.644281 395.86464 616.381146 398.346798 617.484849 401.696154 618.588551 405.045511 617.891413 408.753219 615.656038 411.422622L615.656038 411.429002zM607.886019 462.572031C602.810642 464.361778 585 459.959262 585 459.959262 585 459.959262 596.62405 445.157926 601.699427 443.374711 606.663666 441.926747 611.843029 444.795471 613.489653 449.905032 615.136277 455.014593 612.67464 460.579117 607.886019 462.572031zM592.917668 499.265726C588.217087 501.950761 570 500.717097 570 500.717097 570 500.717097 579.040058 483.914188 583.740639 481.229154 588.441054 478.543895 594.305841 480.404688 596.840007 485.38535 599.374174 490.366012 597.618083 496.580468 592.917668 499.265726zM574.073704 418.484801C577.422934 422.684695 595 429 595 429 595 429 593.133635 410.95097 589.784405 406.732519 586.43089 402.534122 580.195368 401.761486 575.856978 405.006789 571.518587 408.252092 570.720189 414.286403 574.073704 418.484801zM558.280859 463.764994C562.660754 467.008969 581 468 581 468 581 468 573.804458 450.161441 569.399535 446.937287 566.554404 444.771592 562.824793 444.392917 559.640974 445.94648 556.457155 447.500044 554.313279 450.744722 554.031502 454.43621 553.749725 458.127698 555.373781 461.693053 558.280859 463.764994zM547.026071 506.371313C550.88781 510.047789 569 514 569 514 569 514 564.707772 496.518359 560.839702 492.841884 558.352374 490.395258 554.696481 489.434769 551.272421 490.328334 547.848361 491.221898 545.186844 493.831018 544.30737 497.156265 543.427896 500.481512 544.466778 504.007491 547.026071 506.383568L547.026071 506.371313z"></path> <path fill="#000" fill-rule="nonzero" d="M604.870422 379.41615C604.090378 384.795215 591.906216 399 591.906216 399 591.906216 399 584.292727 382.001142 585.053431 376.622077 585.501449 373.090885 587.854565 370.072605 591.207256 368.728728 594.559947 367.384851 598.389694 367.924822 601.222739 370.140849 604.055784 372.356876 605.450595 375.90359 604.870422 379.41615zM615.656038 411.429002C612.198037 415.550912 595 421 595 421 595 421 597.84488 402.496071 601.29675 398.399684 603.532124 395.730282 606.966128 394.504731 610.305204 395.184685 613.644281 395.86464 616.381146 398.346798 617.484849 401.696154 618.588551 405.045511 617.891413 408.753219 615.656038 411.422622L615.656038 411.429002z" opacity=".25"></path> <path fill="#51D667" fill-rule="nonzero" d="M607.886019,462.572031 C602.810642,464.361778 585,459.959262 585,459.959262 C585,459.959262 596.62405,445.157926 601.699427,443.374711 C606.663666,441.926747 611.843029,444.795471 613.489653,449.905032 C615.136277,455.014593 612.67464,460.579117 607.886019,462.572031 Z"></path> <path fill="#000" fill-rule="nonzero" d="M592.917668,499.265726 C588.217087,501.950761 570,500.717097 570,500.717097 C570,500.717097 579.040058,483.914188 583.740639,481.229154 C588.441054,478.543895 594.305841,480.404688 596.840007,485.38535 C599.374174,490.366012 597.618083,496.580468 592.917668,499.265726 Z" opacity=".25"></path> <path fill="#51D667" fill-rule="nonzero" d="M574.073704,418.484801 C577.422934,422.684695 595,429 595,429 C595,429 593.133635,410.95097 589.784405,406.732519 C586.43089,402.534122 580.195368,401.761486 575.856978,405.006789 C571.518587,408.252092 570.720189,414.286403 574.073704,418.484801 Z"></path> <path fill="#000" fill-rule="nonzero" d="M558.280859 463.764994C562.660754 467.008969 581 468 581 468 581 468 573.804458 450.161441 569.399535 446.937287 566.554404 444.771592 562.824793 444.392917 559.640974 445.94648 556.457155 447.500044 554.313279 450.744722 554.031502 454.43621 553.749725 458.127698 555.373781 461.693053 558.280859 463.764994zM547.026071 506.371313C550.88781 510.047789 569 514 569 514 569 514 564.707772 496.518359 560.839702 492.841884 558.352374 490.395258 554.696481 489.434769 551.272421 490.328334 547.848361 491.221898 545.186844 493.831018 544.30737 497.156265 543.427896 500.481512 544.466778 504.007491 547.026071 506.383568L547.026071 506.371313z" opacity=".25"></path> <path stroke="#535461" stroke-width="2" d="M571,537 C571,537 546.115498,497.793661 552.246926,462.091516 C554.92181,447.144487 552.630937,431.741029 545.718268,418.193874 C542.38254,411.786595 538.459978,405.696394 534,400"></path> <path fill="#FFC107" fill-rule="nonzero" d="M538.731837 377.126786C540.234991 382.315821 534.928596 400 534.928596 400 534.928596 400 520.868917 387.611651 519.378721 382.410053 518.40189 379.054694 519.345455 375.448927 521.853984 372.951008 524.362513 370.453089 528.054901 369.442512 531.540261 370.299952 535.025621 371.157391 537.774443 373.752582 538.751274 377.10794L538.731837 377.126786zM561.568556 401.710514C559.9303 406.884094 545.568035 419 545.568035 419 545.568035 419 540.711543 401.09777 542.330374 395.917872 543.970071 390.740561 549.601574 387.840249 554.908687 389.439842 560.2158 391.039436 563.188828 396.533203 561.54913 401.710514L561.568556 401.710514zM574.861838 450.973725C570.931061 454.622347 553 458 553 458 553 458 557.876154 440.198002 561.806931 436.574587 565.739985 432.920301 571.852187 433.188326 575.458918 437.173239 579.065648 441.158151 578.801111 447.350946 574.868058 451.005233L574.861838 450.973725z"></path> <path fill="#51D667" fill-rule="nonzero" d="M575.795454,492.198261 C572.462849,496.524061 555,503 555,503 C555,503 556.904346,484.388852 560.205211,480.031151 C562.327065,477.136646 565.8424,475.624519 569.390656,476.080016 C572.938912,476.535513 575.963274,478.887156 577.293206,482.224773 C578.623138,485.562391 578.049937,489.362223 575.795454,492.153599 L575.795454,492.198261 Z"></path> <path fill="#FFC107" fill-rule="nonzero" d="M527.067186,426.241028 C531.76592,428.937361 550,427.730933 550,427.730933 C550,427.730933 540.976436,410.926648 536.290165,408.236908 C533.250033,406.494005 529.561891,406.59928 526.615025,408.513075 C523.668159,410.426871 521.910269,413.858437 522.003535,417.515136 C522.096801,421.171834 524.027054,424.498125 527.067186,426.241028 Z"></path> <path fill="#51D667" fill-rule="nonzero" d="M529.221792,472.887763 C534.579125,473.945355 552,467.180636 552,467.180636 C552,467.180636 538.352163,454.283173 532.99483,453.23203 C529.492468,452.45478 525.849499,453.661348 523.47582,456.38477 C521.102142,459.108192 520.370228,462.921112 521.563344,466.347858 C522.75646,469.774604 525.687384,472.277456 529.221792,472.887763 Z"></path> <path fill="#FFC107" fill-rule="nonzero" d="M537.833684,517.43027 C542.872578,519.386943 561,515.675786 561,515.675786 C561,515.675786 549.813655,500.465914 544.762163,498.483151 C539.808725,496.843569 534.48229,499.504027 532.637965,504.538969 C530.79364,509.573911 533.076237,515.223026 537.833684,517.397659 L537.833684,517.43027 Z"></path> <polygon fill="url(#home-img-5-a)" fill-rule="nonzero" points="200 44 200 61.388 200 492 522 492 522 61.388 522 44"></polygon> <rect width="316" height="17" x="203" y="48" fill="#F6F7F9" fill-rule="nonzero"></rect> <rect width="315.683" height="16.931" x=".051" y=".013" fill="#FFC107" fill-rule="nonzero" opacity=".2" transform="translate(203 48)"></rect> <rect width="316" height="422" x="203" y="65" fill="#F6F7F9" fill-rule="nonzero"></rect> <circle cx="210" cy="56" r="3" fill="#F6F7F9" fill-rule="nonzero"></circle> <circle cx="219" cy="56" r="3" fill="#F6F7F9" fill-rule="nonzero"></circle> <circle cx="226" cy="56" r="3" fill="#F6F7F9" fill-rule="nonzero"></circle> <rect width="203.714" height="7.171" x=".032" y=".56" fill="#FFC107" fill-rule="nonzero" opacity=".2" transform="translate(259 90)"></rect> <rect width="27" height="8" x="435" y="91" fill="#51D667" fill-rule="nonzero"></rect> <rect width="256.01" height="91.676" x=".387" y=".298" fill="#FFC107" fill-rule="nonzero" opacity=".2" transform="translate(232 136)"></rect> <rect width="147" height="8" x="304" y="170" fill="#F6F7F9" fill-rule="nonzero"></rect> <rect width="77" height="8" x="304" y="187" fill="#F6F7F9" fill-rule="nonzero"></rect> <rect width="27" height="8" x="435" y="211" fill="#51D667" fill-rule="nonzero"></rect> <circle cx="263.5" cy="182.5" r="14.5" fill="#F6F7F9" fill-rule="nonzero"></circle> <rect width="256.01" height="91.676" x=".387" y=".292" fill="#FFC107" fill-rule="nonzero" opacity=".2" transform="translate(232 253)"></rect> <rect width="147" height="8" x="304" y="287" fill="#F6F7F9" fill-rule="nonzero"></rect> <rect width="77" height="8" x="304" y="304" fill="#F6F7F9" fill-rule="nonzero"></rect> <rect width="27" height="8" x="435" y="328" fill="#51D667" fill-rule="nonzero"></rect> <circle cx="263.5" cy="299.5" r="14.5" fill="#F6F7F9" fill-rule="nonzero"></circle> <rect width="256.01" height="91.676" x=".387" y=".286" fill="#FFC107" fill-rule="nonzero" opacity=".2" transform="translate(232 371)"></rect> <rect width="147" height="8" x="304" y="404" fill="#F6F7F9" fill-rule="nonzero"></rect> <rect width="77" height="8" x="304" y="421" fill="#F6F7F9" fill-rule="nonzero"></rect> <rect width="27" height="8" x="435" y="446" fill="#51D667" fill-rule="nonzero"></rect> <circle cx="263.5" cy="417.5" r="14.5" fill="#F6F7F9" fill-rule="nonzero"></circle> <path fill="url(#home-img-5-b)" fill-rule="nonzero" d="M122.525002,295.378552 C120.071075,306.544287 115.645128,320.303314 115.645128,320.303314 C120.020347,325.407469 139.106451,326.32051 139.106451,326.32051 L139.138155,326.282467 L139.436178,326.282467 C139.569337,326.986269 139.721518,327.66471 139.905404,328.311448 C139.871586,328.949731 139.839882,329.596469 139.810291,330.25166 C139.53813,331.015004 139.444848,331.830636 139.537632,332.635713 C139.575048,332.815504 139.621609,332.993271 139.677132,333.16832 C139.220587,343.275181 138.897201,354.054142 139.176201,360.280577 C139.177946,362.044291 139.358528,363.803283 139.715177,365.530565 C140.045372,366.848693 140.232453,368.198583 140.273176,369.556824 C140.58388,378.668216 138.370907,393.974341 138.370907,393.974341 C138.370907,393.974341 138.427975,394.183579 138.459679,394.291369 C138.421634,394.551332 138.39627,394.703506 138.39627,394.703506 C138.588666,395.320244 138.697432,395.960009 138.719656,396.605675 C138.88452,404.29044 134.477595,421.010511 134.477595,421.010511 C134.477595,421.010511 130.91401,446.721503 131.421282,456.517676 C131.437779,457.300004 131.494924,458.080947 131.592487,458.857344 C132.683121,467.004971 134.128846,489.754919 134.128846,489.754919 C134.381709,490.130093 134.659206,490.488066 134.959504,490.826474 C134.832686,491.333719 134.680504,491.847305 134.515641,492.35455 C132.809784,497.482342 132.089054,502.886453 132.39144,508.28205 C132.435826,508.916107 132.486553,509.607228 132.549962,510.30469 C133.279166,518.699599 153.589062,513.474973 154.926992,512.498526 C155.383537,512.162476 155.060151,509.119005 154.432402,505.2576 L175.357366,510.425161 C175.357366,510.425161 190.195068,512.618997 197.252487,510.425161 C204.309907,508.231325 204.062612,502.182426 193.967902,501.186958 C186.897801,500.502177 181.286106,493.92067 178.515133,490.033903 C179.586745,487.110903 187.620663,464.925265 189.098092,451.191601 C190.054068,442.319131 191.619744,433.522995 193.784016,424.865574 L195.3629,404.429933 L198.165577,392.382859 L201.50723,376.455359 C205.280064,364.776038 206.434108,345.253438 206.434108,345.253438 L209.350921,326.09859 C209.757298,324.016802 209.984289,321.903985 210.029397,319.783387 C212.764548,320.344099 215.464143,321.066071 218.114042,321.94552 C222.679489,318.394804 216.211773,284.181114 216.211773,284.181114 C216.211773,284.181114 213.098392,262.572468 210.460578,242.872332 C216.503454,241.965631 223.053602,243.385917 223.053602,243.385917 L261.37165,244.229212 C262.167564,243.185369 262.855882,242.063725 263.426101,240.881394 L265.068393,240.881394 C265.271924,240.598095 265.432198,240.286109 265.543961,239.955672 L266.222437,240.082483 C268.713201,240.658151 271.162155,241.401696 273.552515,242.308021 C273.552515,242.308021 285.638267,243.766351 283.812088,231.091561 C282.455136,221.644119 271.700973,225.074365 266.323891,227.420374 L265.645415,227.731062 C265.594688,227.37599 265.562984,227.173092 265.562984,227.173092 L263.831918,227.49012 C263.724681,227.22629 263.604047,226.968104 263.470487,226.716571 C263.470487,226.716571 244.676065,225.987406 229.438887,223.704803 C218.602292,222.081618 210.416192,215.886886 206.567267,212.4503 C203.897749,198.900512 196.14283,194.785485 196.14283,194.785485 C191.83736,194.569906 187.956731,192.674077 185.572553,191.209406 C184.71071,190.694957 183.884521,190.12301 183.099603,189.497454 L182.681103,189.738395 L182.630376,189.694011 C185.211122,187.297278 187.886981,185.097101 190.239454,183.251997 L191.298384,182.434064 C198.808764,181.69874 205.509422,177.402467 209.311703,170.884434 C213.113984,164.366401 213.555499,156.419253 210.498624,149.52019 C210.397169,149.29193 210.276692,149.063669 210.168897,148.84175 C212.59368,148.573528 214.5183,146.67785 214.823116,144.257521 C215.057729,141.600824 213.22521,138.772932 214.42364,136.38888 C214.643777,136.035176 214.834639,135.664075 214.99432,135.279281 C215.093692,134.916169 215.123808,134.537596 215.083093,134.163341 C214.904077,131.891369 213.747204,129.809106 211.912644,128.456833 C209.192399,126.484917 206.776516,127.486726 203.802635,127.315531 C200.365868,127.118973 196.960806,126.288359 193.574766,125.73039 C189.687796,125.096333 185.705712,124.665175 181.825082,125.343615 C177.944452,126.022056 174.146254,127.924225 171.895235,131.157913 C170.931419,132.540157 170.278306,134.118957 169.358876,135.545584 C168.32531,137.194131 166.98738,138.620759 165.801632,140.155175 C163.804249,142.735785 162.18732,145.829981 162.345843,149.089032 C162.434615,150.934136 163.087728,152.709494 163.214546,154.554599 C163.220576,156.273808 163.093377,157.9909 162.834092,159.690457 C162.637869,161.880272 162.763915,164.087026 163.208205,166.240261 C163.297446,166.914517 163.554736,167.55553 163.956431,168.104387 C164.409026,168.589351 164.975783,168.953364 165.605064,169.163261 C166.26321,169.422916 166.939209,169.634816 167.627811,169.797318 C166.857312,171.589801 165.907697,173.299867 164.79343,174.901473 L163.766204,173.836258 L160.988891,178.173204 L160.881095,177.881538 C160.747936,178.154183 160.595755,178.414146 160.437232,178.674109 L160.151892,177.881538 C158.921758,180.348018 156.620012,182.408702 153.931471,184.107973 C146.664802,188.67318 136.525705,190.562669 136.525705,190.562669 C120.191552,192.93404 123.209819,209.806284 123.209819,209.806284 C123.209819,209.806284 116.279217,239.911288 114.332562,258.520846 C112.385906,277.130405 119.620871,288.987262 119.620871,288.987262 L122.525002,295.378552 Z M200.422936,240.355127 C201.057026,242.428492 201.615025,244.394067 202.090593,246.11236 L201.78623,246.232831 C201.43748,244.641349 200.961913,242.599687 200.441959,240.355127 L200.422936,240.355127 Z M182.452831,189.839844 L182.364058,189.896909 L182.44649,189.814482 L182.452831,189.839844 Z M154.28022,504.414305 C153.481267,499.63986 152.289178,493.876286 151.553634,490.433359 C152.073588,488.740428 152.764746,486.153477 153.576381,482.304754 C155.402559,473.675245 156.493194,443.139083 156.493194,443.139083 L160.754277,417.485156 C164.647589,407.631918 165.497269,395.927235 165.497269,395.927235 C167.063471,391.793186 170.684124,366.487991 171.261146,362.423688 C171.096282,365.232559 170.703147,372.346673 170.493897,380.247017 C170.493897,380.316763 170.493897,380.39285 170.493897,380.462596 C170.335375,386.429068 170.290988,392.826698 170.493897,398.133751 C170.550965,399.623784 170.627056,401.03773 170.72851,402.343887 C170.760215,402.679937 170.779237,403.028668 170.791919,403.371058 C171.248464,417.130085 165.085111,434.439828 165.085111,434.439828 C165.085111,434.439828 162.339502,447.273132 162.745319,454.444311 C162.740528,455.732234 162.924247,457.013927 163.290637,458.24865 C163.472257,458.819748 163.57675,459.412553 163.601341,460.011327 C163.715477,466.871819 159.663643,481.271242 158.630076,484.802937 C156.372717,489.456912 154.692379,501.320109 154.28022,504.414305 Z"></path> <path fill="#2D293D" fill-rule="nonzero" d="M176.540218,485.109843 C176.540218,485.109843 183.73104,497.950302 193.844337,498.909865 C203.957633,499.869427 204.201173,505.854066 197.13212,508.03202 C190.063066,510.209974 175.200751,508.03202 175.200751,508.03202 L154,502.874373 C154,502.874373 156.563573,482.231155 159.966717,481.151648 C163.36986,480.07214 176.540218,485.109843 176.540218,485.109843 Z"></path> <path fill="#2D293D" fill-rule="nonzero" d="M150.736213,486.498097 C150.736213,486.498097 156.131136,510.52723 154.784016,511.503972 C153.436897,512.480714 132.972286,517.690006 132.224602,509.314282 C132.160147,508.618433 132.108582,507.941736 132.069909,507.296959 C131.759328,501.911843 132.485535,496.517352 134.209831,491.400959 C134.798739,489.833774 135.080925,488.169846 135.041306,486.498097 C134.686801,483.127379 150.736213,486.498097 150.736213,486.498097 Z"></path> <path fill="#FFB9B9" fill-rule="nonzero" d="M158 184.144903C158 184.144903 174.217412 224.339913 171.33544 211.451989 169.439406 202.889814 181.769948 191.526749 190.295781 184.846721 194.637699 181.439715 198 179.25132 198 179.25132 198 179.25132 167.537052 143.40758 169.698531 158.873088 170.290178 163.108114 169.715091 167.42583 168.036341 171.352682 165.814887 176.40406 162.362042 180.805022 158 184.144903zM262 241.41865C263.28356 241.239991 264.589816 241.322647 265.84087 241.661689 268.387707 242.249348 270.891009 243.013129 273.332857 243.947564 273.332857 243.947564 285.699543 245.445207 283.802009 232.432794 282.414847 222.72439 271.422237 226.245164 265.919389 228.662412 264.048028 229.483488 262.804816 230.179761 262.804816 230.179761L262 241.41865z"></path> <path fill="#000" fill-rule="nonzero" d="M262,239.775644 C263.419698,239.610719 264.864498,239.687021 266.248242,240 C267.73187,236.852956 266.602865,229.400707 266.364037,228 C264.294195,228.757959 262.919126,229.400707 262.919126,229.400707 L262,239.775644 Z" opacity=".1"></path> <path fill="#CBCDDA" fill-rule="nonzero" d="M262.028252,228.551772 L265.370069,228 C265.370069,228 267.088331,238.307836 264.849178,241 L261,241 L262.028252,228.551772 Z"></path> <path fill="#4C4C78" fill-rule="nonzero" d="M198.557698,248.14741 C198.557698,248.14741 208.130072,242.430282 209.26964,249.652921 C210.409209,256.875559 211.922302,269.281727 211.922302,269.281727 L214.568633,285.041943 L218,316.6259 L217.518849,322 C217.518849,322 207.345036,318.582428 204.939281,319.763968 C202.533525,320.945507 200.60259,306.512935 200.60259,306.512935 L196.633094,291.53406 L196,259.772237 L198.557698,248.14741 Z"></path> <path fill="#6F5151" fill-rule="nonzero" d="M198.557698,248.14741 C198.557698,248.14741 208.130072,242.430282 209.26964,249.652921 C210.409209,256.875559 211.922302,269.281727 211.922302,269.281727 L214.568633,285.041943 L218,316.6259 L217.518849,322 C217.518849,322 207.345036,318.582428 204.939281,319.763968 C202.533525,320.945507 200.60259,306.512935 200.60259,306.512935 L196.633094,291.53406 L196,259.772237 L198.557698,248.14741 Z"></path> <path fill="#4C4C78" fill-rule="nonzero" d="M204,211 C204,211 213.889602,222.271704 228.897342,224.547722 C243.905081,226.823739 262.423661,227.544159 262.423661,227.544159 C262.423661,227.544159 267.094276,235.997937 260.356236,245 L222.606824,244.158447 C222.606824,244.158447 214.24888,242.322333 207.775572,244.158447 L204,211 Z"></path> <path fill="#916565" fill-rule="nonzero" d="M204,211 C204,211 213.889602,222.271704 228.897342,224.547722 C243.905081,226.823739 262.423661,227.544159 262.423661,227.544159 C262.423661,227.544159 267.094276,235.997937 260.356236,245 L222.606824,244.158447 C222.606824,244.158447 214.24888,242.322333 207.775572,244.158447 L204,211 Z" opacity=".752"></path> <path fill="#000" fill-rule="nonzero" d="M169.052168,171.058299 C172.695912,179.080869 179.017965,185 188.211413,185 C188.616273,185 189.008676,185 189.407308,185 C193.686372,181.575498 197,179.375864 197,179.375864 C197,179.375864 166.978036,143.348046 169.108225,158.892979 C169.762231,163.619305 170.515894,167.486299 169.052168,171.058299 Z" opacity=".1"></path> <path fill="#FFB9B9" fill-rule="nonzero" d="M188.493625,183.999999 C201.472304,184.003532 211.996466,173.485103 211.999999,160.506432 C212.003532,147.52776 201.485097,137.003604 188.506418,137.000071 C182.269673,136.984748 176.283769,139.454626 171.872511,143.863481 C167.461252,148.272336 164.988115,154.256891 165.000043,160.49364 C164.996511,173.472311 175.514946,183.996467 188.493625,183.999999 Z"></path> <path fill="#CBCDDA" fill-rule="nonzero" d="M151,303.450977 C151,303.450977 202.738909,308.051608 204.671068,301.395646 C206.603226,294.739684 199.392361,276.718953 199.392361,276.718953 L201.703374,251.552289 L201.791773,250.585075 C201.791773,250.585075 195.325988,223.36308 195.540672,221.212301 C195.761671,219.258782 185.103228,196.395616 182.912186,191.744078 L182.514388,190.904129 L182.103962,191.145933 L181.927164,191.254108 L179.401466,192.743109 L169.380762,190.363253 L157.320558,184 L156.177679,253.613983 L151,303.450977 Z"></path> <path fill="#000" fill-rule="nonzero" d="M178.24616,191.119802 C178.24616,191.119802 181.836177,190.149852 183.237628,193.729735 C183.778143,195.259255 184.419473,196.751469 185.157423,198.196613 L186.558874,206.492243 L189.118601,219.592957 L191,277.662369 L190.15529,288 L185.47099,279.70437 L184.619881,225.463711 L184.619881,218.699582 C184.34353,212.863003 183.021478,207.122907 180.716297,201.750971 L180.076365,200.225852 L176,195.012367 L178.24616,191.119802 Z" opacity=".1"></path> <path fill="#FFC107" fill-rule="nonzero" d="M178.256072,190.119834 C178.256072,190.119834 181.8415,189.149628 183.241159,192.730454 C183.780983,194.260376 184.421494,195.752982 185.1585,197.198507 L186.558159,205.496321 L189.114614,218.600483 L191,276.685179 L190.143588,287 L185.465275,278.702186 L184.615254,224.447251 L184.615254,217.681341 C184.34142,211.8436 183.02322,206.101984 180.723051,200.728269 L180.083937,199.202748 L176,194.00704 L178.256072,190.119834 Z"></path> <path fill="#000" fill-rule="nonzero" d="M163.9474,176 C163.9474,176 176.553191,188.828249 181,190.364641 C181,190.364641 178.776596,200.101369 176.553191,202 C176.553191,202 163.323286,189.040596 160.950355,187.991352 L159,183.375931 L163.9474,176 Z" opacity=".1"></path> <path fill="#CBCDDA" fill-rule="nonzero" d="M163.9474,175 C163.9474,175 176.553191,187.828249 181,189.364641 C181,189.364641 178.776596,199.101369 176.553191,201 C176.553191,201 163.323286,188.040596 160.950355,186.991352 L159,182.375931 L163.9474,175 Z"></path> <path fill="#000" fill-rule="nonzero" d="M182,190 L182.126382,190.333438 L186.056872,200.814722 L193.07109,220.607109 C193.07109,220.607109 193.1406,220.80843 193.260664,221.185908 C194.423381,224.784523 200.679305,244.318968 201.911532,250 L202,249.043724 C202,249.043724 195.535545,222.104435 195.750395,219.97798 C195.971564,218.046556 185.304897,195.441963 183.112164,190.843032 C182.764613,190.603964 182.480253,190.402642 182.303318,190.251651 L182,190 Z" opacity=".1"></path> <path fill="#916565" fill-rule="nonzero" d="M183,190 L187.140312,200.886619 L194.305246,220.787435 C194.305246,220.787435 194.376186,220.989859 194.498718,221.369405 C195.75629,225.228113 202.921223,247.241731 203.527437,251.271235 C204.172345,255.699261 213.201064,279.597953 213.201064,279.597953 L218.360332,321 C222.95853,317.482882 216.425607,283.678063 216.425607,283.678063 C216.425607,283.678063 209.067201,233.5275 207.325948,216.846492 C205.584695,200.165484 196.149684,195.231397 196.149684,195.231397 C191.80945,195.016321 187.901304,193.143899 185.495796,191.695302 C184.626313,191.185332 183.792526,190.618971 183,190 Z"></path> <path fill="#000" fill-rule="nonzero" d="M131.188239,458.731562 C132.273188,466.818338 133.726132,489.390218 133.726132,489.390218 C138.80192,497.007276 150.013065,492.887717 150.013065,492.887717 C150.013065,492.887717 151.212219,490.589905 153.020469,482.020715 C154.828718,473.451526 155.920012,443.161027 155.920012,443.161027 L160.145605,417.701013 C164.003203,407.925789 164.847053,396.341514 164.847053,396.341514 C166.534752,391.898231 170.639795,362.547169 170.639795,362.547169 C170.639795,362.547169 168.945751,388.857755 170.005322,402.733495 C171.064892,416.609235 164.460024,435.321806 164.460024,435.321806 C164.460024,435.321806 160.716631,452.821995 162.651775,458.249149 C164.586919,463.676302 157.823432,486.127579 157.823432,486.127579 C158.426182,492.64651 177.606313,489.986888 177.606313,489.986888 C177.606313,489.986888 186.653904,465.732907 188.221053,451.1272 C189.169883,442.321872 190.72379,433.59238 192.871743,425.000693 L194.432548,404.726625 L197.211541,392.78054 L200.529837,376.975146 C204.266886,365.384523 205.415282,346.018155 205.415282,346.018155 L208.308481,327.013596 C210.211901,317.612878 207.756489,306.593535 206.106858,300.804571 C205.396248,298.309985 204.837912,296.780226 204.837912,296.780226 C203.175591,297.96087 193.65849,299.319245 188.734977,300.468151 C186.032131,301.086871 183.252456,301.300787 180.486822,301.102906 C168.044628,300.119613 155.73539,297.867236 143.750812,294.380853 L142.481865,294 L142.228076,296.170861 L141.631671,301.35046 L140.578445,310.535362 C140.578445,310.535362 137.317252,359.532084 139.246051,366.171619 C141.17485,372.811154 137.920002,395.11009 137.920002,395.11009 C139.728251,400.403945 134.062403,421.922132 134.062403,421.922132 C134.062403,421.922132 130.103289,450.651134 131.188239,458.731562 Z" opacity=".1"></path> <path fill="#534343" fill-rule="nonzero" d="M131.187481,457.731562 C132.272441,465.818338 133.725399,488.390218 133.725399,488.390218 C138.801236,496.007276 150.01249,491.887717 150.01249,491.887717 C150.01249,491.887717 151.211657,489.589905 153.019924,481.020715 C154.82819,472.451526 155.919495,442.161027 155.919495,442.161027 L160.145129,416.701013 C164.002765,406.925789 164.846623,395.341514 164.846623,395.341514 C166.534339,390.898231 170.639422,361.547169 170.639422,361.547169 C170.639422,361.547169 168.945361,387.857755 170.004942,401.733495 C171.064523,415.609235 164.45959,434.321806 164.45959,434.321806 C164.45959,434.321806 160.716161,451.821995 162.651324,457.249149 C164.586486,462.676302 157.822934,485.127579 157.822934,485.127579 C158.42569,491.64651 177.606007,488.986888 177.606007,488.986888 C177.606007,488.986888 186.653686,464.732907 188.220851,450.1272 C189.16969,441.321872 190.723612,432.59238 192.871586,424.000693 L194.432406,403.726625 L197.211427,391.78054 L200.529755,375.975146 C204.26684,364.384523 205.415248,345.018155 205.415248,345.018155 L208.308474,326.007249 C210.211913,316.612878 207.756477,305.593535 206.10683,299.804571 C205.396213,297.309985 204.837871,295.780226 204.837871,295.780226 C203.175535,296.96087 193.658341,298.319245 188.734779,299.468151 C186.031907,300.086871 183.252205,300.300787 180.486545,300.102906 C168.044229,299.119613 155.734872,296.867236 143.750177,293.380853 L142.481218,293 L142.227426,295.170861 L141.631015,300.35046 L140.577779,309.535362 C140.577779,309.535362 137.316554,358.532084 139.245372,365.171619 C141.17419,371.811154 137.938344,394.116437 137.938344,394.116437 C139.746611,399.410292 134.080708,420.92848 134.080708,420.92848 C134.080708,420.92848 130.102521,449.651134 131.187481,457.731562 Z"></path> <path fill="#000" fill-rule="nonzero" d="M165.000001,160.236534 C164.99865,164.286918 166.072908,168.266837 168.115583,171.779159 C171.774951,172.410939 175.671027,171.715981 178.441144,169.321534 C180.315611,167.691541 181.524738,165.461356 183.136907,163.572333 C184.178891,162.406446 185.30112,161.312974 186.495594,160.299712 C187.271716,159.533956 188.165618,158.89427 189.144158,158.404371 C190.145674,157.898195 191.329378,157.884168 192.342906,158.366464 C193.622406,159.080376 194.083026,160.666144 194.81234,161.936023 C195.376482,163.020875 196.340461,163.850741 197.505687,164.254656 C198.696443,164.624245 199.992244,164.186601 200.704436,163.174312 C201.497726,161.822302 200.915553,159.712156 202.25263,158.890842 C202.603947,158.719626 202.967435,158.57393 203.340205,158.454914 C205.061132,157.684142 205.259454,155.403415 205.400199,153.545981 C205.476969,152.6299 205.675292,151.59378 206.455786,151.100992 C207.236281,150.608203 208.253483,150.854597 209.18112,150.879869 C209.455812,150.885712 209.730345,150.862413 210,150.810373 C205.500596,140.782812 194.507888,135.233936 183.642454,137.505667 C172.777021,139.777399 165.004646,149.249656 165.006399,160.21758 L165.000001,160.236534 Z" opacity=".1"></path> <path fill="#472727" fill-rule="nonzero" d="M211.79782,130.486488 C213.638763,131.820861 214.800623,133.882085 214.980218,136.132291 C215.023704,136.505059 214.995344,136.8826 214.89664,137.244921 C214.73425,137.627355 214.54298,137.997157 214.324451,138.351194 C213.115783,140.716328 214.96736,143.526514 214.723055,146.171394 C214.402183,148.749839 212.206498,150.698643 209.579785,150.736357 C208.647568,150.736357 207.651059,150.462968 206.840994,150.958883 C206.030929,151.454798 205.857344,152.497492 205.780195,153.419385 C205.632326,155.294962 205.439453,157.590159 203.710029,158.359463 C203.336318,158.48416 202.971228,158.632826 202.617084,158.804515 C201.273405,159.631041 201.864881,161.760933 201.061245,163.108805 C200.348625,164.131602 199.044782,164.575157 197.846702,164.202361 C196.677061,163.793613 195.709074,162.959132 195.140056,161.869017 C194.400711,160.59744 193.957104,158.995252 192.658429,158.276811 C191.640232,157.792417 190.452083,157.804167 189.443885,158.3086 C188.460739,158.801972 187.562478,159.445678 186.782243,160.215966 C185.583419,161.237317 184.455759,162.337619 183.406973,163.509352 C181.786843,165.416718 180.571745,167.654694 178.681594,169.295029 C175.132738,172.378604 169.680872,172.683782 165.309093,170.929006 C164.678041,170.71815 164.108633,170.358027 163.650389,169.879954 C163.237991,169.326393 162.97272,168.679303 162.878899,167.99802 C162.434794,165.857416 162.307025,163.664424 162.499583,161.487544 C162.761239,159.804553 162.890209,158.103994 162.885328,156.401234 C162.763175,154.570163 162.100979,152.80267 162.010972,150.971599 C161.850245,147.735435 163.476804,144.658217 165.482679,142.070557 C166.678489,140.544665 168.022168,139.126856 169.057251,137.492879 C169.957323,136.07507 170.61309,134.504672 171.583882,133.131369 C173.846921,129.952425 177.665798,128.045059 181.561825,127.35205 C185.457851,126.65904 189.463173,127.097734 193.372057,127.733523 C196.773044,128.293017 200.193318,129.113184 203.658596,129.310279 C206.635263,129.4883 209.065458,128.490111 211.79782,130.486488 Z"></path> <path fill="#000" fill-rule="nonzero" d="M183,190 L186.96074,201.105465 L193.814919,221.406332 C193.814919,221.406332 193.882782,221.612825 194,222 L185.362872,191.729381 C184.539562,191.208192 183.750206,190.630464 183,190 Z" opacity=".1"></path> <path fill="#FFB9B9" fill-rule="nonzero" d="M139.01503,316.279743 C139.01503,316.279743 138.610704,329.662379 141.996186,333 L151,314.903537 L143.432451,311 L139.01503,316.279743 Z"></path> <path fill="#000" fill-rule="nonzero" d="M116,320.036858 C120.3797,325.106479 139.426602,326 139.426602,326 L158.307267,296.545502 C158.307267,296.545502 162.782874,293.472044 171.152257,279.644652 C179.521641,265.817261 179.265892,255.158383 178.824725,247.205414 C178.383558,239.252446 173.070374,216.388455 173.070374,216.388455 C172.258372,211.24279 160.500314,179 160.500314,179 C159.266326,181.446092 156.970979,183.480278 154.279222,185.165927 C147.022346,189.671552 136.875507,191.515627 136.875507,191.515627 C120.552331,193.866664 123.563775,210.583739 123.563775,210.583739 C123.563775,210.583739 123.365569,275.582618 124.388565,283.351813 C125.411561,291.121007 116,320.036858 116,320.036858 Z" opacity=".1"></path> <polygon fill="#CBCDDA" fill-rule="nonzero" points="139 318.387 139.542 323 146.154 320.693 151 313.713 147.366 311"></polygon> <path fill="#000" fill-rule="nonzero" d="M139,299.274056 L142.442877,299.604902 L175.652032,302.744938 C180.980159,303.251744 186.358333,303.002363 191.608688,302.005045 L207,299.087579 C206.288557,296.723529 205.729566,295.273819 205.729566,295.273819 C204.065297,296.392682 194.537039,297.679976 189.607753,298.768763 C186.901739,299.355106 184.118805,299.557828 181.34993,299.370302 C168.878173,298.441307 156.539455,296.306766 144.52639,293 L143.027277,294.696341 L139,299.274056 Z" opacity=".1"></path> <g fill="#000" fill-rule="nonzero" opacity=".1" transform="translate(131 292)"> <path d="M73.9194915 3.34575949C74.0307734 3.29014116 74.138981 3.22856462 74.2436441 3.16129747L74.2754237 3.2503481 73.9194915 3.34575949zM3.34322034 128.563671C3.34322034 128.563671 9.02542373 107.000696 7.20762712 101.695823 7.20762712 101.695823 10.4745763 79.3504747 8.53601695 72.6971203 6.59745763 66.0437658 9.87076271 16.9450633 9.87076271 16.9450633L10.9449153 7.7410443 11.5805085 2.55066456 11.8347458.37528481C11.8347458.37528481 12.2669492.515221519 13.1059322.75693038L13.875.985917722 13.6970339 1.83825949 13.0932203 7.02863924 12.0190678 16.2326582C12.0190678 16.2326582 8.75847458 65.325 10.684322 71.9847152 12.6101695 78.6444304 9.36228814 100.983418 9.36228814 100.983418 11.1737288 106.288291 5.49788136 127.851266 5.49788136 127.851266 5.49788136 127.851266 1.50635593 156.640063 2.59322034 164.743671 3.68008475 172.847278 5.13559322 195.459778 5.13559322 195.459778 8.84110169 201.031804 15.8389831 200.33212 19.3347458 199.549747 19.2966102 199.645158 19.2711864 199.696044 19.2711864 199.696044 19.2711864 199.696044 8.03389831 203.805095 2.95550847 196.191266 2.95550847 196.191266 1.50635593 173.572405.413135593 165.468797-.680084746 157.36519 3.34322034 128.563671 3.34322034 128.563671zM31.9830508 164.966297C30.0762712 159.527848 33.8008475 141.991234 33.8008475 141.991234 33.8008475 141.991234 40.4364407 123.246076 39.3495763 109.335095 38.8983051 103.540443 38.9300847 95.5894937 39.1207627 88.280981 40.6652542 78.867057 42.1334746 68.34 42.1334746 68.34 42.1334746 68.34 40.4364407 94.6989873 41.529661 108.609968 42.6228814 122.520949 35.9745763 141.266108 35.9745763 141.266108 35.9745763 141.266108 32.2245763 158.802722 34.1631356 164.241171 36.1016949 169.67962 29.3262712 192.177627 29.3262712 192.177627 29.809322 197.412532 42.2288136 196.744652 47.1228814 196.267595L46.9385593 196.770095C46.9385593 196.770095 27.7245763 199.435253 27.1271186 192.902753 27.1525424 192.902753 33.9152542 170.398386 31.9830508 164.966297z"></path> </g> <path fill="#916565" fill-rule="nonzero" d="M116,320.036858 C120.379655,325.106479 139.426358,326 139.426358,326 L158.300432,296.545502 C158.300432,296.545502 162.775992,293.472044 171.151682,279.644652 C179.527372,265.817261 179.265233,255.158383 178.82407,247.205414 C178.382908,239.252446 173.069779,216.388455 173.069779,216.388455 C172.257785,211.24279 160.49985,179 160.49985,179 C159.265875,181.446092 156.970552,183.480278 154.278822,185.165927 C147.015628,189.671552 136.881683,191.515627 136.881683,191.515627 C120.558677,193.866664 123.570089,210.583739 123.570089,210.583739 C123.570089,210.583739 123.391067,275.55727 124.394871,283.326465 C125.398675,291.095659 116,320.036858 116,320.036858 Z"></path> <path fill="#000" fill-rule="nonzero" d="M156.706955,194.927529 L160.7205,196.456471 L158.044803,198.351854 L178,247 C177.53738,239.070984 172.373535,216.275852 172.373535,216.275852 C171.579578,211.145684 160.082834,179 160.082834,179 C158.87627,181.438725 156.631935,183.466784 154,185.147357 L156.706955,194.927529 Z" opacity=".1"></path> <polygon fill="#000" fill-rule="nonzero" points="152 282.111 131.665 277 129 285.059 149.777 290" opacity=".1"></polygon> <path fill="#000" fill-rule="nonzero" d="M139.950698,199.204751 C139.950698,199.204751 149.415272,208.096468 145.866854,227.823378 C142.318437,247.550287 136.58736,269.030135 136.58736,269.030135 L152,311.507138 C152,311.507138 141.259018,322.647189 135.981066,324 L120.600337,290.039992 C120.600337,290.039992 113.414154,278.264818 115.322385,259.795452 C117.230617,241.326085 124.148754,211.430862 124.148754,211.430862 C124.148754,211.430862 124.116844,193.228247 139.950698,199.204751 Z" opacity=".1"></path> <path fill="#916565" fill-rule="nonzero" d="M138.999685,199.204751 C138.999685,199.204751 148.465891,208.096468 144.916861,227.823378 C141.367832,247.550287 135.635767,269.030135 135.635767,269.030135 L151,311.507138 C151,311.507138 140.276314,322.647189 134.984686,324 L119.601303,290.039992 C119.601303,290.039992 112.41388,278.264818 114.322441,259.795452 C116.231002,241.326085 123.150332,211.430862 123.150332,211.430862 C123.150332,211.430862 123.150332,193.228247 138.999685,199.204751 Z"></path> <path fill="#000" fill-rule="nonzero" d="M150.747964,312.064944 C150.747964,312.064944 139.167824,328.075967 140.047718,332.386627 C140.927612,336.697287 144.317972,334.375689 144.317972,334.375689 L148.902033,328.106758 L153,316.406395 C153,316.406395 152.593895,311.375239 150.747964,312.064944 Z" opacity=".1"></path> <path fill="#000" fill-rule="nonzero" d="M151.774512,312.064872 C151.774512,312.064872 140.16622,328.075945 141.047785,332.386619 C141.929349,336.697293 145.326146,334.375687 145.326146,334.375687 L149.894252,328.112894 L154,316.412494 C154,316.412494 153.599289,311.375164 151.774512,312.064872 Z" opacity=".1"></path> <path fill="#66563A" fill-rule="nonzero" d="M151.768352,312.064872 C151.768352,312.064872 140.166246,328.075945 141.047809,332.386619 C141.929371,336.697293 145.326162,334.375687 145.326162,334.375687 L149.89426,328.112894 L154,316.412494 C154,316.412494 153.59929,311.375164 151.768352,312.064872 Z"></path> </g> </svg> 