<?xml version="1.0" encoding="UTF-8"?> <svg xmlns="http://www.w3.org/2000/svg" xmlns:xlink="http://www.w3.org/1999/xlink" width="420px" height="491px" viewBox="0 0 420 491"> <!-- Generator: Sketch 48.1 (47250) - http://www.bohemiancoding.com/sketch --> <title>Group 24</title> <desc>Created with Sketch.</desc> <defs></defs> <g id="Landing-page-2" stroke="none" stroke-width="1" fill="none" fill-rule="evenodd" transform="translate(-1047.000000, -4698.000000)"> <g id="Group-14" transform="translate(0.000000, 4698.000000)"> <g id="Group-24" transform="translate(1047.000000, 0.000000)"> <g id="8-copy"> <path d="M111.094859,114.739624 C99.451749,121.026925 77.8582583,132.47034 69.0005385,135.916517 C64.3776095,137.891759 59.0103046,137.126957 55.154194,133.943515 C51.1597116,130.646408 49.6908885,125.867358 47.1562731,121.667055 C45.3650254,118.641784 43.4036092,115.686665 41.5227991,112.705239 C37.5014481,106.321479 32.951679,99.8237243 30.1483764,92.826142 C30.0946389,92.6770707 29.5572646,91.0109797 29.4139648,90.5988414 C29.4139648,90.5988414 29.4139648,90.5988414 29.4139648,90.5988414 C28.6526846,90.3182366 15.0392022,86.4599205 12.8717925,85.18843 C10.7043828,83.9169395 6.08296384,79.304498 5.17838376,79.304498 C4.27380368,79.304498 6.96963144,76.6738279 9.65650295,77.5507179 C12.3433745,78.427608 18.1917981,81.4616474 19.5083652,80.181388 C20.8249322,78.9011286 21.2996129,77.5507179 19.5083652,73.1662679 C17.7171175,68.7818178 15.8721324,63.5204777 15.4243205,62.2139116 C14.9765086,60.9073454 12.737449,56.0756815 14.5286966,55.1987914 C16.3199443,54.3219014 22.6609611,67.4752517 23.108773,67.8961589 C23.5565849,68.3170661 24.461165,68.325835 24.4522088,67.448945 C24.4432525,66.5720549 21.7115998,57.8031548 21.2637879,56.4878198 C20.8876259,55.3917072 20.5831138,54.269288 20.2786017,53.1556377 C20.0815644,52.3488989 18.7291724,48.1924402 20.8070197,49.1394814 C22.1504555,49.7445355 22.9386045,52.2436721 23.4938913,53.4099358 C23.9237907,54.2868258 24.3895151,55.3654005 24.8462833,56.4878198 C24.1924779,54.5937373 23.6192786,52.6821171 23.1625104,50.761728 C23.0639918,50.3320519 22.8490421,49.8848379 23.1625104,49.5779264 C23.6282348,49.1394814 28.9840654,58.3468266 29.3781399,59.0921831 C31.1693876,62.5997432 33.4442721,67.4138694 33.8562591,66.9841933 C35.5579444,65.3181022 31.7067619,53.3836291 34.2413773,53.3748602 C35.1370012,53.3748602 36.032625,57.3559409 36.2027935,57.9522261 C37.2954546,61.4597862 38.5582842,64.8796572 39.5076455,68.4749063 C40.242057,71.2108031 40.9137749,73.9905445 41.7735738,76.6825968 C42.0780859,77.5594868 41.7735738,79.918321 42.6691976,81.7510211 L42.9916222,82.3911508 C43.0901408,82.8295958 43.2065719,83.4521878 43.358828,84.2326199 C43.358828,84.3290778 43.4125654,84.4430735 43.4304779,84.5483003 C44.5410515,90.1428586 49.6998448,95.6584968 53.0853029,100.069254 C57.4559472,105.716425 62.1490161,111.126837 66.5823541,116.730164 L98.9591559,95.7987992 L99.1472369,95.6760346 C102.088887,93.7740894 105.758152,93.2958245 109.105564,94.3780313 C112.452976,95.4602382 115.109875,97.98373 116.316346,101.226748 L116.423821,101.53366 C118.146279,106.618253 115.901681,112.180702 111.094859,114.739624 Z" id="Shape" fill="#FFE2CA" fill-rule="nonzero"></path> <ellipse id="Oval-Copy-3" fill="#15DAFF" opacity="0.104846014" cx="154" cy="465" rx="114" ry="26"></ellipse> <path d="M88,102.0913 L96.5974166,122.183262 L111.271541,114.293748 C113.208979,113.543101 115.418801,113.976209 116.907125,115.39828 C119.409829,117.835263 120.661181,123.936487 120.661181,127.591962 C120.661181,131.247436 113.144068,187 113.144068,187 L168.239554,187 C168.239554,187 170.661235,137.252233 169.823999,123.743632 C169.031777,110.69087 161.919778,81 161.919778,81 L132.022374,81 C132.022374,81 97.911786,88.7755541 88,102.0913 Z" id="Shape" fill="#2082E8" fill-rule="nonzero"></path> <polygon id="Shape" fill="#35ABF6" fill-rule="nonzero" points="89.4579606 103 83 107.46528 91.0679785 128 98 124.240253"></polygon> <path d="M119,114 C123.991097,120.967345 126.439521,129.440472 125.935121,138" id="Shape" fill="#35ABF6" fill-rule="nonzero"></path> <path d="M168.008017,421 L179,421 L179,435.918953 C179,439.277423 176.537566,442 173.5,442 C170.462434,442 168,439.277423 168,435.918953 L168,421 L168.008017,421 Z" id="Shape" fill="#FFD7B6" fill-rule="nonzero" transform="translate(173.500000, 431.500000) rotate(-2.580000) translate(-173.500000, -431.500000) "></path> <path d="M182,441.912412 C182,442.194998 182,442.485434 182,442.76802 C182,442.877915 182,442.97996 182,443.089854 C182,443.37244 182,443.655026 182,443.929763 C181.980093,444.556264 181.906779,445.18067 181.780646,445.797971 C181.067745,449.118359 175.145186,449.769877 170.081764,448.152856 C162.559748,445.797971 152.323226,450.50774 145.724325,446.206151 C145.259762,445.908438 144.839268,445.563115 144.472179,445.177852 C144.285734,444.994036 144.117581,444.797105 143.969493,444.589131 C143.845708,444.431514 143.735728,444.266218 143.640462,444.094605 C143.528178,443.904032 143.43048,443.707375 143.34799,443.505884 C142.824968,442.211359 142.893566,440.794589 143.539925,439.541828 C145.56895,435.185292 152.387204,436.072298 156.810844,435.617021 L168.957574,434 C174.26777,445.279897 181.543012,436.127246 181.543012,436.127246 C181.543012,436.127246 181.936022,439.008054 182,441.912412 Z" id="Shape" fill="#FFFFFF" fill-rule="nonzero"></path> <path d="M63.065,451 L76,451 L76,465.802698 C76,469.225373 73.0898509,472 69.5,472 C65.9101491,472 63,469.225373 63,465.802698 L63,451 L63.065,451 Z" id="Shape" fill="#FFD7B6" fill-rule="nonzero" transform="translate(69.500000, 461.500000) rotate(4.004173) translate(-69.500000, -461.500000) "></path> <path d="M76,468.3587 C75.9841924,470.244109 75.8523334,472.127659 75.604927,474.002147 C75.604927,474.056189 75.604927,474.11023 75.604927,474.171991 C75.604927,474.480798 75.5108621,474.797325 75.4638296,475.106132 C75.4638296,475.175614 75.4638296,475.245095 75.4638296,475.306857 C75.32788,476.056271 75.1266931,476.796729 74.8618136,477.522547 C73.1592373,481.892165 65.5587863,479.336788 62.1442272,478.433527 C58.9501461,477.607105 55.6582706,477.061065 52.3238423,476.804571 C49.9251851,476.603846 45.9180166,477.136538 43.8579934,476.503484 C41.4552169,475.846098 39.3632994,474.588122 37.8754601,472.905883 C37.8504217,472.88202 37.8283628,472.856157 37.8096146,472.828681 C37.5576452,472.489181 37.3555651,472.126378 37.2075987,471.747857 L37.2075987,471.678375 C36.7708651,470.341342 37.0297521,468.915518 37.9224926,467.741086 C40.6221578,463.749756 47.1220485,465.293791 51.6559809,465.293791 L63.367072,465.378713 C66.8851026,476.588406 76,468.3587 76,468.3587 Z" id="Shape" fill="#FFFFFF" fill-rule="nonzero"></path> <path d="M168.355247,214 C168.355247,214 167.118051,304.983114 169.601343,333.252111 C172.084635,361.521108 182,419.311972 182,419.311972 L165.880856,423 C165.880856,423 139.837445,339.401765 137.398657,320.961626 C134.959869,302.521488 128.720487,265.641211 128.720487,265.641211 L125,232.448961 L168.355247,214 Z" id="Shape" fill="#5E6061" fill-rule="nonzero"></path> <path d="M150.560363,249.506217 C135.987396,265.731595 125.248946,278.164258 117.075842,292.404663 C109.06476,306.334917 103.484007,321.975437 99.1364196,344.589946 C96.1480161,360.115267 92.8355688,377.474915 89.8651677,393.647124 C89.7751556,394.143367 89.6761422,394.630749 89.58613,395.126992 C84.2844141,423.483743 79.8198113,447.914856 79.1537213,451.539203 C79.0907128,451.831632 79.0637092,452 79.0637092,452 L59,450.768254 C59,450.768254 61.2593051,429.61589 64.2207049,402.526332 C64.2747122,401.985781 64.3377207,401.427508 64.4007293,400.869234 C69.3964038,355.24145 76.2643312,293.911116 77.8215415,287.778968 C80.3328806,277.898413 114.195453,189 114.195453,189 L169.27389,189 C169.27389,189 179.409259,217.427642 150.560363,249.506217 Z" id="Shape" fill="#787A7A" fill-rule="nonzero"></path> <path d="M119,206 C119.778926,213.336123 122.141381,220.81494 127.396989,226.086204 C132.652597,231.357469 141.297816,233.816833 148,230.476127" id="Shape" stroke="#F1EEFC" stroke-linecap="round"></path> <path d="M157.878593,63.4385349 L158.611125,63.4385349 L156.024654,81 L131.480311,81 L131.480311,66.0025088 C121.722262,65.1946814 114.21607,53.1650778 115.409826,44.4633718 C115.482175,43.9453086 115.654003,42.3120923 115.970529,40.8018063 C116.287055,39.2915203 116.757323,37.9129453 117.417506,37.9129453 C115.976708,37.9142765 114.625952,37.2326601 113.799104,36.087032 C112.972256,34.9414038 112.77343,33.4760209 113.266491,32.1615655 L121.197733,11 C136.31864,11 148.916381,33.0220773 148.916381,33.0220773 L159,52.5943302 L157.878593,63.4385349 Z" id="Shape" fill="#FFE2CA" fill-rule="nonzero"></path> <path d="M189.120129,71.7025018 C187.733692,68.1470496 185.99841,64.6627065 185.309664,60.7339318 C183.690663,51.4275357 186.123636,41.845592 184.030564,32.5836391 C182.590458,26.2016024 180.559999,20.5217675 177.447224,15.6952411 C173.484698,9.57986335 167.760055,4.89555508 159.253593,2.01563881 C146.730937,-2.21534931 129.735903,0.513460253 118.554959,7.41103751 C112.293631,11.2598145 119.23476,11.2509259 121.444115,15.7930161 C122.54432,18.0418396 122.964723,20.557322 123.787641,22.9039205 C125.513978,27.8548876 129.378112,32.8325207 134.20828,35.1524533 C139.575133,37.7301561 142.526902,39.4367732 145.773848,44.7966173 C148.027926,48.5031763 150.326728,52.3430646 150.97075,56.6273845 C151.954673,63.2138597 148.949236,69.4270124 147.249732,75.6312765 C146.095859,79.8355987 144.709422,88.5109021 151.632662,88.5109021 C151.632662,88.5109021 150.389341,99.6572447 160.353798,100.892764 C170.318255,102.128284 184.030564,103.372692 186.52615,98.4128365 C189.518761,92.6944989 191.054408,86.3340826 190.998528,79.8889305 C190.841927,77.0743157 190.206816,74.3063756 189.120129,71.7025018 Z" id="Shape" fill="#001128" fill-rule="nonzero"></path> <polygon id="Shape" fill="#F0FAFC" fill-rule="nonzero" points="0 38.5807907 50.8977816 11 82 92.4192093 32.4754241 120"></polygon> <path d="M16,45 C25.824335,62.9265212 33.0087835,82.1154764 37.3411079,102 L77,85.053585" id="Shape" stroke="#D8E5ED" stroke-width="1.39"></path> <path d="M23,54 L59,39" id="Shape" stroke="#D8E5ED" stroke-width="1.39"></path> <path d="M28,72 L61,57" id="Shape" stroke="#D8E5ED" stroke-width="1.39"></path> <path d="M33,85 C43.8948163,79.7025316 54.8948163,74.7025316 66,70" id="Shape" stroke="#D8E5ED" stroke-width="1.39"></path> <path d="M37,93 C48.4128139,88.9553934 59.4538085,83.9367595 70,78" id="Shape" stroke="#D8E5ED" stroke-width="1.39"></path> <path d="M28,43 C35.9627713,61.6315663 42.9718368,80.6561724 49,100" id="Shape" stroke="#D8E5ED" stroke-width="1.39"></path> <path d="M41,39 C49.5479558,55.7090861 56.574585,73.1083583 62,91" id="Shape" stroke="#D8E5ED" stroke-width="1.39"></path> <path d="M51,39 L72,91" id="Shape" stroke="#D8E5ED" stroke-width="1.39"></path> <path d="M36.2310838,101 C36.6869873,94.196596 36.16434,87.359027 34.6811827,80.7233148 C34.2336177,78.7309101 33.7031703,76.6503459 34.2004648,74.684389 C34.6977592,72.7184321 36.686937,71.0081378 38.4937735,71.7398617 C39.5177427,72.3072474 40.3173115,73.2452735 40.748175,74.3846467 C42.5443669,78.0045135 43.8263891,81.887494 44.5524775,85.9070934 C46.0055889,84.7305585 46.8530993,82.8949544 46.840032,80.9525295 C46.8129623,79.037915 46.5024916,77.1397892 45.9200373,75.3279533 L42.6461822,63.1354944 C42.1788119,61.7930578 42.0113991,60.3533914 42.1571759,58.9302862 C42.4058232,57.5285501 43.4915827,56.1885257 44.8259895,56.2061576 C46.6079613,56.2061576 47.5693972,58.3836973 48.1412858,60.1821511 L51.9953178,72.7008002 C53.516676,72.0793497 54.6143621,70.6467213 54.8796256,68.9363895 C55.1206073,67.2513583 54.9987459,65.530121 54.5232313,63.902482 C53.3877423,59.2123966 51.3322585,54.8308694 50.0558695,50.1760477 C48.7794804,45.5212261 48.3484918,40.3198155 50.4205521,36" id="Shape" stroke="#77CEA1" stroke-width="2.79" stroke-linecap="round" stroke-linejoin="round"></path> <path d="M119,84.0882426 L116.256154,85.2533335 L115.009766,85.7711516 L113.315038,86.4011637 L103.595008,90 L97.5962072,84.6751032 C96.827676,84.055071 96.0023421,83.5033518 95.1303325,83.0267153 C94.2386306,82.702207 93.3248615,82.4369223 92.3954532,82.2327275 C90.4400718,81.7297112 88.5275464,81.0834289 86.6746238,80.2995397 C86.6746238,80.2995397 86.6746238,80.2995397 86.6746238,80.2995397 L85.5717053,80.0320003 C84.7088207,79.8018102 83.8638499,79.5134201 83.0430629,79.16897 C82.043918,78.7753742 81.0037979,78.4860431 79.9405441,78.3059397 C80.1554226,78.5170207 80.2691561,78.8047578 80.2543827,79.0999276 C80.1871013,79.4421984 79.9631076,79.7370459 79.6446391,79.9025457 C78.7479574,80.4289942 77.8961098,79.9025457 77.0173617,79.5141821 C76.6871787,79.378944 76.4216374,79.1295267 76.2731158,78.8151276 C75.6633723,80.0147397 74.1748806,81.0762669 72.7760571,80.4894063 C72.5336296,80.3899243 72.3341575,80.2131751 72.2111476,79.9888488 C71.5326868,80.8595253 70.3473825,81.2084003 69.2789984,80.851879 C68.3823167,80.4721457 68.3823167,79.3588367 68.6692548,78.2627882 L66.6248205,78.7115639 C65.324632,78.9963639 62.6794209,79.5745942 62.5090514,77.3393458 C62.4104164,76.0102792 65.4322338,75.1386186 65.4322338,75.1386186 C65.4322338,75.1386186 73.125763,73.1104974 75.4930027,71.6174551 C75.4930027,71.6174551 75.6992395,71.4016975 75.8875427,71.2118308 L74.0941793,69.4857703 C73.6707691,69.100513 73.2919542,68.6722546 72.9643603,68.2084854 C72.6056876,67.6561461 72.0138777,67.9582067 71.4489682,68.0876612 C69.4909357,68.6656555 67.6650873,69.5970385 66.0688778,70.8320975 C65.0257505,71.5346128 64.0504132,72.3260378 63.1546622,73.1968005 C62.7601223,73.5765338 62.3566155,74.1547641 61.8993078,74.6121701 C61.5497675,75.0275234 61.0620209,75.314066 60.518418,75.4234186 C59.9607216,75.4686865 59.4260914,75.1996323 59.1464949,74.7329944 C58.6891872,73.8699641 59.4154994,72.5236368 59.7831389,71.7382793 C60.3195502,70.6618725 60.9781402,69.6459377 61.7468719,68.709043 C63.1008613,66.9829825 64.8583575,65.1878795 66.9745264,64.3938916 C69.8528747,63.3064735 77.0711626,59.9147645 78.3354838,61.3473947 C79.1783646,62.3226189 86.1635153,66.9225703 90.5034548,69.7533096 L96.0987488,72.8861096 L101.478839,75.8980852 L119,84.0882426 Z" id="Shape" fill="#FFE2CA" fill-rule="nonzero"></path> <polygon id="Shape" fill="#F97148" fill-rule="nonzero" points="62.8592 75 65 78 59 77.8015564 59 77.8015564"></polygon> <path d="M78.6437797,65 L90,60.4761421 L88.3562203,57 L77,61.5238579 L78.6437797,65 Z M87.932019,57.9583756 L88.9129844,60.0456853 L79.067981,63.9685279 L78.0870156,61.8812183 L87.932019,57.9583756 Z" id="Shape" fill="#322C73" fill-rule="nonzero"></path> <path d="M88,60 L94,60 L94,61.2012848 C94,62.1946878 92.6568542,63 91,63 C89.3431458,63 88,62.1946878 88,61.2012848 L88,60 Z" id="Shape" fill="#322C73" fill-rule="nonzero" transform="translate(91.000000, 61.500000) rotate(-113.430000) translate(-91.000000, -61.500000) "></path> <rect id="Rectangle-path" fill="#322C73" fill-rule="nonzero" transform="translate(76.000000, 71.500000) rotate(-113.430000) translate(-76.000000, -71.500000) " x="73" y="57" width="6" height="29"></rect> <path d="M131,65.4213836 C131,65.4213836 139.769346,64.0527154 140.915666,63.0588017 C142.061986,62.0648879 131.14329,74 131.14329,74 L131,65.4213836 Z" id="Shape" fill="#F3CAA8" fill-rule="nonzero"></path> <ellipse id="Oval-Copy" fill="#15DAFF" opacity="0.104846014" cx="330" cy="459.5" rx="90" ry="20.5"></ellipse> </g> <g id="8-copy-2" transform="translate(264.000000, 245.000000) scale(-1, 1) translate(-264.000000, -245.000000) translate(188.000000, 33.000000)"> <path d="M95.9357676,60.3311463 C95.4804214,61.3685836 91.7156839,61.952142 91.7156839,61.952142 C91.7156839,61.952142 94.1550386,82.3361636 83.4218777,85.237746 C81.5346443,85.7755191 79.5865689,86.0723717 77.6243446,86.1211887 L80.1612735,95.952528 L53.2389282,99 C53.2389282,99 55.8083819,78.7375531 55.678283,74.1015052 L55.3855604,73.9313007 L49.3766165,54.8359707 C49.3766165,54.8359707 46.9372618,43.3106909 54.474868,50.0945581 L59.9471538,41.0412968 L83.6820756,36 C83.6820756,36 88.4144238,44.023929 89.3739033,46.9660363 C89.715413,48.0521034 89.8292495,50.4268622 90.4065635,51.4075646 C91.3416495,53.0285604 94.3257935,56.1246623 94.7974021,57.3241992 C95.2690106,58.523736 96.2610149,59.5935932 95.9357676,60.3311463 Z" id="Shape" fill="#FCDFDC" fill-rule="nonzero"></path> <polygon id="Shape" fill="#F9C5BF" fill-rule="nonzero" points="77.6553672 85.5459377 65 80 79 91"></polygon> <path d="M91.786011,34.3780254 C90.7751829,35.3190238 89.6486256,36.1294429 88.4331105,36.790024 C88.349387,36.8474422 88.2598065,36.8959496 88.1658503,36.9347439 C87.712959,37.1782784 87.2449928,37.3931078 86.764759,37.5779436 C86.6837711,37.5779436 86.5946843,37.6342235 86.5055976,37.6744235 C82.4562008,38.9608228 66.9794063,38.7276629 62.5250699,42.8119806 C60.5003715,44.6611795 59.9982463,52.0097353 57.2770516,52.3956551 C55.9002567,52.580575 53.8350644,48.9062971 52.6364429,49.3645769 C51.4378215,49.8228566 50.2068048,50.2972163 50.9033011,55.5392933 C51.5997973,60.7813704 54.9041051,64.8254881 55.7625772,68.0656062 C56.4995674,70.7107647 55.9002567,79 55.9002567,79 C55.9002567,79 55.7463796,78.8392001 55.4386255,78.5497603 C53.1466669,76.2905215 42.8288039,65.8948075 36.3740654,55.6277333 C32.9563745,50.1926964 34.0740081,43.2622203 37.1110556,37.1357438 C33.2965239,34.4101854 27.3925034,31.564027 21.8691262,29.0957484 C13.8999133,25.4938304 12.4421304,19.7371937 13.1629231,13.980557 C13.6055248,10.6677354 15.0809073,7.57533984 17.3823945,5.13656201 C20.7271963,1.64720399 26.4044505,-0.91755455 35.645174,0.312564751 C46.5704465,1.71956395 51.2758456,13.980557 53.2114573,22.2135123 C58.0707334,21.9883924 66.8660232,24.0144713 66.8660232,24.0144713 C73.1182918,9.92035929 80.1966374,8.56964005 84.0354656,7.77368051 C87.8742937,6.97772096 96.4590149,11.2308785 96.9530413,21.3371528 C97.3296253,26.2397272 95.4261198,31.0439127 91.786011,34.3780254 Z" id="Shape" fill="#001128" fill-rule="nonzero"></path> <path d="M55,79 C52.7308886,76.7231723 42.5238962,66.2384212 36.1335011,55.8995168 C32.7498791,50.4221662 33.8563716,43.4377339 36.8631447,37.2635605 C33.0866377,34.5167826 27.2414708,31.6484659 21.7731528,29.1609708 C13.8833802,25.5391132 12.4481472,19.737659 13.1617547,13.9281022 C13.594177,10.5877712 15.0556504,7.46959723 17.3391648,5.01525355 C17.6598872,4.67494478 26.0547977,10.1360902 26.8966942,10.6870663 C30.1456029,12.6754145 33.2102494,14.9560965 36.0533205,17.5013443 C40.1953137,21.3716575 43.1484112,26.3641246 44.5604838,31.883441 C45.312165,34.6753881 45.7003053,37.5544812 45.7150847,40.4478783 C45.7150847,43.4296313 44.2718336,46.4518972 44.9132785,49.4255476 C45.7150847,53.0636104 47.0861732,56.5558266 48.1205032,60.120966 C48.9218904,63.0004792 49.9959264,65.7952779 51.3277278,68.4666334 C52.6025996,70.8974103 54.1901758,73.490239 54.5349524,76.3099402 C54.6792775,77.2741484 54.8797291,78.2707669 55,79 Z" id="Shape" fill="#323233" fill-rule="nonzero"></path> <path d="M44.488189,397 C47.5322781,397 50,399.513555 50,402.614183 L50,416 L39,416 L39,402.590122 C39.0129396,399.508259 41.4625219,397.01318 44.488189,397 Z" id="Shape" fill="#FCDFDC" fill-rule="nonzero" transform="translate(44.500000, 406.500000) rotate(-179.660000) translate(-44.500000, -406.500000) "></path> <path d="M69.8375251,420.010494 C66.7733882,422.54896 62.6372033,422.368202 58.3970138,422.132431 L57.0289527,422.069559 C54.0608201,421.928097 51.1406896,421.90452 48.6365777,422.941911 C44.2923836,424.741628 39.0361487,424.332958 38.2921154,421.040027 C37.5480822,417.747095 38.4601229,410.949038 38.4601229,410.949038 C38.4601229,410.949038 45.4924372,420.497754 49.5966206,409 C52.8847675,409.251489 56.3489223,409.581568 59.6370693,409.840916 C62.9252162,410.100264 67.4774196,409.337938 70.0935365,411.514888 C70.4044128,411.76945 70.6741625,412.068882 70.8935723,412.402958 C71.0990718,412.666987 71.2710161,412.954657 71.4055952,413.259592 C72.603884,415.587476 71.9451224,418.423596 69.8375251,420.010494 Z" id="Shape" fill="#FFFFFF" fill-rule="nonzero"></path> <path d="M89,218.759378 C89,218.759378 84.2638234,271.599258 80.3748335,286.625121 C79.1968407,291.177925 78.1076007,295.320495 77.2362088,298.401279 C76.7907986,300.21975 76.2247624,302.006728 75.5418356,303.750422 C74.8076072,305.061566 71.3220394,315.94486 67.7638556,327.60036 C67.1022432,329.756105 66.4406308,331.927938 65.7951553,334.091726 C62.5032302,344.97502 59.5663166,355.110239 59.1467575,357.274027 C58.283434,361.770525 52.7404131,391.154614 52.9421242,400.332617 C52.9986033,402.592932 48.5367538,403.091649 46.9149966,402.987079 C45.4430422,402.76378 43.9895086,402.433095 42.5661053,401.997689 C40.587699,401.452392 38.5562293,401.120689 36.5067039,401.008298 C35.8075341,400.944297 35.2301127,400.436936 35.0785894,399.753462 C33.543506,391.931315 32.5754783,384.009106 32.182018,376.048312 C31.7774722,368.98433 32.0476364,361.898 32.9888624,354.885011 C33.7024013,349.346757 35.2501408,343.947555 37.579807,338.869758 C40.0003402,333.938894 41.8480138,327.463615 43.2922653,320.175911 C45.0648407,310.815928 46.1809896,301.344172 46.632601,291.829475 C47.7137725,271.904923 46.4389584,216.547326 43.4617026,213 L89,218.759378 Z" id="Shape" fill="#5E6061" fill-rule="nonzero"></path> <path d="M68,328.021379 C67.3340191,330.198623 66.6680381,332.392115 66.0183006,334.577483 L65.3035893,335.666105 C65.3035893,335.666105 37.5760412,377.911133 32.3050456,376.984992 L32.1832199,376.984992 C31.7760029,369.850561 32.0479509,362.69356 32.9953917,355.610632 C34.6066396,354.260591 36.4002696,353.144721 38.3232393,352.296022 C44.0084425,350.029414 48.5078747,344.37508 51.9027532,340.979229 C55.2976317,337.583379 60.9584698,329.662436 64.3533482,328.52507 C65.5211575,328.107382 66.7627295,327.93589 68,328.021379 Z" id="Shape" fill="#919191" fill-rule="nonzero"></path> <path d="M18.4842407,384 C21.5305104,384 24,386.510376 24,389.607083 L24,403 L13,403 L13,389.575042 C13.0172181,386.503311 15.4625389,384.017503 18.4842407,384 Z" id="Shape" fill="#FCDFDC" fill-rule="nonzero" transform="translate(18.500000, 393.500000) rotate(-99.680000) translate(-18.500000, -393.500000) "></path> <path d="M15.8919504,421.776075 L15.7008696,421.912141 C15.3558714,422.155944 14.9878627,422.365052 14.6021551,422.536448 C12.6053118,423.415856 10.2799844,423.023104 8.67865036,421.535957 C4.82518762,418.334387 4.98442162,412.603576 4.16436653,407.441044 C4.06086444,406.792726 3.94143894,406.144408 3.80609004,405.512098 C3.48740902,403.980514 2.90833163,402.515666 2.09432457,401.181975 C-0.46934279,397.220031 -0.955006482,392.01748 2.19782667,390.656813 C5.35065982,389.296145 12.508228,389 12.508228,389 C12.508228,389 3.98920914,397.668251 16.1706099,399.661229 C16.4811162,402.942838 16.7677374,406.408538 17.0782437,409.706155 C17.4205968,413.500016 19.538409,419.01472 15.8919504,421.776075 Z" id="Shape" fill="#FFFFFF" fill-rule="nonzero"></path> <path d="M95.1159309,325.213592 C93.7505018,331.985078 91.9407023,337.466757 89.5734199,340.925051 C82.9078637,350.598602 68.3325141,364.762293 54.4277599,377.281481 C42.1792954,388.293206 30.439837,398.04737 25.0750742,402.456897 C23.1360033,404.069156 22.0210375,401.578216 22.0210375,401.578216 C21.592826,400.530248 21.6493822,399.006664 21.4958725,397.886144 C21.2138195,395.680446 20.6714251,393.515747 19.87998,391.43711 C19.3871329,390.211794 17.1652808,387.350035 18.3368028,386.06829 C18.6276634,385.753899 18.9912392,385.350834 19.4032918,384.891341 C30.8761279,372.243173 41.8076401,359.014592 52.3109408,345.568356 C55.5427257,341.432913 58.7260337,337.265224 61.6750374,332.920188 C64.2889256,329.224038 65.9029592,324.917596 66.3611254,320.417123 C66.7650985,315.765757 65.706689,310.969288 65.480464,306.317922 C64.0180814,276.652366 46.7684298,237.587342 43.956777,214 C50.6061743,214.290207 73.0428405,217.933911 79.7003173,218.216056 L97.4347366,220.747302 C97.4347366,220.747302 102.19354,290.146969 95.1159309,325.213592 Z" id="Shape" fill="#787A7A" fill-rule="nonzero"></path> <path d="M94,325 C92.6454342,331.762657 90.8500334,337.237188 88.501585,340.690974 C81.8890597,350.351912 67.4296709,364.497136 53.6355423,377 C53.4578365,376.783223 53.312073,376.541916 53.2027225,376.28348 C52.1046425,373.441554 55.7435353,371.404707 57.4988602,369.947515 C63.1094877,365.278062 66.9888359,358.128967 71.3971861,352.340455 C75.0280637,347.574392 78.9715333,343.057904 82.7867601,338.436755 C86.4737439,333.984673 89.511498,328.622852 94,325 Z" id="Shape" fill="#919191" fill-rule="nonzero"></path> <path d="M57,223 C60.3664946,229.930252 64.2355702,236.803963 69.9474425,241.924919 C75.6593149,247.045874 83.5091506,250.204066 91,248.564391" id="Shape" stroke="#D5D5D5" stroke-linecap="round"></path> <path d="M107.820189,218.963773 C107.820189,218.963773 122.162158,219.623774 120.924237,215.30962 C119.686316,210.995466 99,155 99,155 C99,155 108.300698,216.492793 107.820189,218.963773 Z" id="Shape" fill="#F284F6" fill-rule="nonzero"></path> <path d="M57,92.116626 C57,92.116626 78.221722,101.62803 78.6492215,91 L80.8996436,96.6232965 C80.8996436,96.6232965 83.1500657,102.246593 84.2712437,105.580405 C85.5940724,109.540812 96.2412305,129.543681 98.878822,138.042892 C99.3869818,139.649548 100,147 100,147 C100,147 89.8851998,126.852532 87.6347777,123.494621 C85.3843557,120.136709 57,92.116626 57,92.116626 Z" id="Shape" fill="#F284F6" fill-rule="nonzero"></path> <path d="M105.737148,221.97691 C100.061637,222.410272 59.0202421,216.600007 59.0202421,216.600007 L40.2886518,213.831304 L35.7338335,213.157184 L33.6365358,212.844201 C33.322099,212.795029 33.0725172,212.552865 33.0132186,212.239407 C32.9539199,211.92595 33.0977283,211.608987 33.3723724,211.447811 C35.3961378,210.241324 36.9020064,208.325629 37.5989876,206.070908 C40.6407451,196.155452 42.1339866,185.827885 42.0257267,175.454665 C42.0257267,172.244574 41.8175979,169.034482 41.4893948,165.824391 C41.3693205,164.604557 41.2252313,163.416823 41.0651323,162.164888 C39.4641417,149.509103 36.3822347,136.989748 36.2621604,124.333964 C36.0508846,115.832459 38.6640486,107.501663 43.6907569,100.651517 C44.8034454,99.0464715 52.0479279,87.8111528 54.5694882,89.1032144 C74.7659848,99.6403384 84.5640474,109.407041 94.9464715,130.031876 C98.7808441,137.639792 100.285775,146.427416 102.150929,154.709451 C105.404257,169.247882 107.865422,183.953148 109.523491,198.759926 C109.74763,200.798334 110.876328,206.151161 110.996402,211.207054 C111.068447,216.608032 110.083838,221.655901 105.737148,221.97691 Z" id="Shape" fill="#D070FC" fill-rule="nonzero"></path> <path d="M151.908106,121.391298 C151.489822,122.36822 149.679943,123.006045 148.835332,123.393585 C148.183776,123.716534 147.419604,124.071779 146.607169,124.418949 C147.982678,123.918378 149.374274,123.474322 150.76587,123.10293 C151.079583,123.022193 151.409383,122.860718 151.634613,123.10293 C151.859842,123.345142 145.360364,127.4466 144.789246,127.745328 C142.271502,129.109789 138.78849,130.821421 139.15851,131.136297 C140.405316,132.33121 149.052518,129.343928 149.108825,131.136297 C149.108825,131.757975 146.229106,132.484611 145.794735,132.629938 C143.252859,133.437311 140.783379,134.446528 138.201284,135.197386 C136.214439,135.778695 134.17933,136.311561 132.248792,136.981681 L126.537616,139.201959 L107.755089,154.542056 C103.716976,158.633738 99.4523031,162.493723 94.9813609,166.103645 C89.3506246,170.818706 83.4383514,176.526837 76.2390527,178.52105 C73.9063191,179.175022 69.2006323,180.846285 66.8678986,179.47375 C64.712131,178.1981 61.7197968,169.42195 60.2236297,165.029838 C58.7274626,160.637726 46.4765891,123.046414 46.1950523,120.535482 C45.9135155,118.024551 44.5299631,105.534482 56.3786412,103.193099 C68.2273193,100.851716 72.9330061,120.575851 72.9330061,120.575851 C72.9330061,120.575851 79.9794705,152.192599 81.1941007,154.081853 C82.1030625,155.486683 100.129463,144.272264 109.235168,138.49147 L109.766066,138.144299 L121.349295,130.466177 C122.226081,127.785697 125.162108,118.743113 125.934323,117.362504 C126.851329,115.747757 129.61039,111.45253 129.594302,110.806631 C129.578214,110.160733 131.548972,112.033839 130.96981,113.987683 C130.390649,115.941527 128.267057,120.188312 129.256458,121.124865 C130.245858,122.061418 131.219171,122.352073 134.388472,120.971464 C137.557772,119.590855 141.362541,118.186025 142.319766,117.838855 C143.276991,117.491684 146.75196,115.763905 147.435692,117.031481 C148.119424,118.299058 138.587392,123.10293 138.305855,123.433953 C138.024318,123.764977 138.024318,124.410875 138.659787,124.37858 C139.295256,124.346286 145.657988,122.239041 146.607169,121.89187 C147.41156,121.601216 148.215951,121.359003 149.020342,121.124865 C149.55124,120.931095 152.559662,119.889584 151.908106,121.391298 Z" id="Shape" fill="#FCDFDC" fill-rule="nonzero"></path> </g> </g> </g> </g> </svg> 