<?xml version="1.0" encoding="UTF-8"?> <svg xmlns="http://www.w3.org/2000/svg" xmlns:xlink="http://www.w3.org/1999/xlink" width="669px" height="683px" viewBox="0 0 669 683"><!-- Generator: Sketch 55.2 (78181) - https://sketchapp.com --><title>Award Illustration</title><desc>Created with Sketch.</desc><defs><filter x="-53.6%" y="-65.0%" width="207.4%" height="230.0%" id="filter-1"><feOffset dx="13" dy="63" in="SourceAlpha" result="shadowOffsetOuter1"></feOffset><feGaussianBlur stdDeviation="64.5" in="shadowOffsetOuter1" result="shadowBlurOuter1"></feGaussianBlur><feColorMatrix values="0 0 0 0 0 0 0 0 0 0 0 0 0 0 0 0 0 0 0.0432145979 0" type="matrix" in="shadowBlurOuter1" result="shadowMatrixOuter1"></feColorMatrix><feMerge><feMergeNode in="shadowMatrixOuter1"></feMergeNode><feMergeNode in="SourceGraphic"></feMergeNode></feMerge></filter><linearGradient x1="72.3455552%" y1="42.5972962%" x2="42.9088461%" y2="99.505187%" id="linearGradient-2"><stop stop-color="#CBDAF1" offset="0%"></stop><stop stop-color="#9CB3DF" offset="100%"></stop></linearGradient><path d="M35.1380794,0.535682636 C53.4282056,0.535682636 68.2552731,15.4053999 68.2552731,33.7480741 C68.2552731,52.0907483 53.4282056,66.9604656 35.1380794,66.9604656 C16.8479533,66.9604656 2.02088572,52.0907483 2.02088572,33.7480741 C2.02088572,15.4053999 16.8479533,0.535682636 35.1380794,0.535682636 Z" id="path-3"></path><linearGradient x1="0%" y1="67.2546548%" x2="106.166257%" y2="55.4873236%" id="linearGradient-5"><stop stop-color="#FDAE6B" offset="0%"></stop><stop stop-color="#FAE539" offset="100%"></stop></linearGradient><radialGradient cx="50%" cy="14.7303753%" fx="50%" fy="14.7303753%" r="85.2696247%" gradientTransform="translate(0.500000,0.147304),scale(0.171423,1.000000),rotate(90.000000),scale(1.000000,3.338140),translate(-0.500000,-0.147304)" id="radialGradient-6"><stop stop-color="#000000" offset="0%"></stop><stop stop-color="#2062E7" offset="100%"></stop></radialGradient><radialGradient cx="42.0546178%" cy="45.5410746%" fx="42.0546178%" fy="45.5410746%" r="42.2553341%" gradientTransform="translate(0.420546,0.455411),scale(0.842585,1.000000),rotate(-67.824702),scale(1.000000,1.538504),translate(-0.420546,-0.455411)" id="radialGradient-7"><stop stop-color="#62ABFB" offset="0%"></stop><stop stop-color="#1440C0" offset="100%"></stop></radialGradient><radialGradient cx="52.9469765%" cy="28.6240847%" fx="52.9469765%" fy="28.6240847%" r="54.1963442%" gradientTransform="translate(0.529470,0.286241),scale(0.829790,1.000000),rotate(108.416938),scale(1.000000,3.925275),translate(-0.529470,-0.286241)" id="radialGradient-8"><stop stop-color="#F4F8FF" offset="0%"></stop><stop stop-color="#89B1E9" offset="100%"></stop></radialGradient><filter x="-47.3%" y="-56.3%" width="194.7%" height="212.7%" id="filter-9"><feGaussianBlur stdDeviation="19.676412" in="SourceGraphic"></feGaussianBlur></filter><linearGradient x1="121.757504%" y1="51.8508947%" x2="10.1555247%" y2="52.6915644%" id="linearGradient-10"><stop stop-color="#002971" offset="0%"></stop><stop stop-color="#00255B" offset="100%"></stop></linearGradient><linearGradient x1="73.5376219%" y1="53.3295024%" x2="29.1232252%" y2="59.2311867%" id="linearGradient-11"><stop stop-color="#004197" offset="0%"></stop><stop stop-color="#00245E" offset="100%"></stop></linearGradient><path d="M3.33122166,25.7966493 C2.2748211,20.9667626 0.685649832,17.3740772 2.2748211,10.8540372 C3.86399238,4.33399725 22.1489383,0.638661401 24.4558783,2.72694184 C26.7629021,4.81518317 26.3874552,5.93291884 35.5265737,10.8005417 C44.6656922,15.6681255 70.8614405,21.329578 76.4684058,27.6440434 C82.075371,33.9584698 83.1190247,38.1335447 71.4658288,38.1335447 L35.419986,38.1335447 C28.9506752,35.7819318 26.7747266,34.515441 23.1480616,32.3386271 C22.4084051,35.0662728 23.1480616,37.3889872 23.1480616,37.3889872 L7.62458379,37.3889872 C7.62458379,37.3889872 4.38753835,30.6264968 3.33122166,25.7966493 Z" id="path-12"></path><linearGradient x1="121.757504%" y1="53.3886647%" x2="10.1555247%" y2="54.9277841%" id="linearGradient-14"><stop stop-color="#002971" offset="0%"></stop><stop stop-color="#00255B" offset="100%"></stop></linearGradient><linearGradient x1="73.5376219%" y1="56.0957372%" x2="29.1232252%" y2="66.90069%" id="linearGradient-15"><stop stop-color="#004197" offset="0%"></stop><stop stop-color="#00245E" offset="100%"></stop></linearGradient><path d="M11.8200328,42.9601272 C8.38036035,39.7036283 5.18386691,37.7155105 2.93460214,31.6894786 C0.685418012,25.6633449 13.2136139,12.850629 16.169832,13.2584101 C19.1261307,13.6662422 19.4299633,14.754931 29.3074676,13.6720946 C39.1851332,12.5892582 56.8526737,0.541367312 64.7049767,2.51442165 C72.5572796,4.48757777 79.6061643,4.52783172 70.3535857,10.8271936 C66.0047544,13.7880219 49.1678134,31.8325303 43.9417632,35.3906539 C37.5389362,37.0241196 35.1291653,37.1966874 31.0773108,37.4321553 C31.9588851,39.9934974 33.7969636,41.4344464 33.7969636,41.4344464 L21.4713766,49.8259451 C21.4713766,49.8259451 15.2597053,46.2166261 11.8200328,42.9601272 Z" id="path-16"></path><linearGradient x1="60.4789308%" y1="16.2692604%" x2="52.2059316%" y2="80.0144172%" id="linearGradient-18"><stop stop-color="#F5F8FF" offset="0%"></stop><stop stop-color="#FFFFFF" offset="100%"></stop></linearGradient><path d="M208.963617,109.560813 C232.969109,96.7415614 246.648312,59.3193232 256.563173,48.7968946 C266.4781,38.2744659 270.85618,58.4061818 269.217146,64.3330677 C267.578112,70.2599537 255.494876,110.09646 230.272194,142.269052 C230.272194,163.286855 205.862218,126.425043 208.963617,109.560813 Z" id="path-19"></path><filter x="0.1%" y="3.8%" width="101.6%" height="86.8%" id="filter-20"><feGaussianBlur stdDeviation="3" in="SourceAlpha" result="shadowBlurInner1"></feGaussianBlur><feOffset dx="0" dy="1" in="shadowBlurInner1" result="shadowOffsetInner1"></feOffset><feComposite in="shadowOffsetInner1" in2="SourceAlpha" operator="arithmetic" k2="-1" k3="1" result="shadowInnerInner1"></feComposite><feColorMatrix values="0 0 0 0 0.898039216 0 0 0 0 0.941176471 0 0 0 0 1 0 0 0 1 0" type="matrix" in="shadowInnerInner1"></feColorMatrix></filter><linearGradient x1="-1.11022302e-14%" y1="50%" x2="68.1235987%" y2="53.3039872%" id="linearGradient-21"><stop stop-color="#FF9988" offset="0%"></stop><stop stop-color="#FFC1BD" offset="100%"></stop></linearGradient><linearGradient x1="50%" y1="53.8272169%" x2="86.1217409%" y2="39.0241924%" id="linearGradient-22"><stop stop-color="#002383" offset="0%"></stop><stop stop-color="#316EEA" offset="100%"></stop></linearGradient><path d="M7.63086377,50.8933035 C14.6224642,41.4337506 31.7397855,21.7021101 68.5877646,14.514116 C105.435525,7.32612181 139.278375,0.614351539 201.396637,19.1460182 C206.510963,79.2950105 212.338793,139.854653 218.220278,152.11896 C213.734047,157.593587 197.527769,161.776533 188.020287,161.776533 C184.571025,148.234505 173.762897,115.608948 168.272328,99.4715486 C162.78154,83.3339863 160.834623,63.3020684 161.895463,56.2388923 C143.175713,61.57247 104.829769,77.7843712 91.3857476,82.5868634 C77.9415077,87.389518 31.8140268,102.615048 16.5459482,90.3572336 C1.27765065,78.0995814 0.639044326,60.3528564 7.63086377,50.8933035 Z" id="path-23"></path><filter x="-4.0%" y="-3.0%" width="109.1%" height="110.0%" id="filter-25"><feGaussianBlur stdDeviation="7" in="SourceAlpha" result="shadowBlurInner1"></feGaussianBlur><feOffset dx="10" dy="2" in="shadowBlurInner1" result="shadowOffsetInner1"></feOffset><feComposite in="shadowOffsetInner1" in2="SourceAlpha" operator="arithmetic" k2="-1" k3="1" result="shadowInnerInner1"></feComposite><feColorMatrix values="0 0 0 0 0.103708091 0 0 0 0 0.317384548 0 0 0 0 0.809603529 0 0 0 1 0" type="matrix" in="shadowInnerInner1"></feColorMatrix></filter><linearGradient x1="50%" y1="100%" x2="79.8161638%" y2="39.0738882%" id="linearGradient-26"><stop stop-color="#002343" offset="0%"></stop><stop stop-color="#1A72FF" stop-opacity="0.436933877" offset="100%"></stop></linearGradient><linearGradient x1="50%" y1="16.3760257%" x2="50%" y2="76.5597425%" id="linearGradient-27"><stop stop-color="#6081C1" offset="0%"></stop><stop stop-color="#90AADB" offset="100%"></stop></linearGradient><path d="M7.44711676,33.2965994 C5.59382786,23.9746315 2.01864519,7.63478919 1.30491625,4.14343848 C0.591141908,0.652087777 35.1692205,12.7119244 35.1692205,12.7119244 L39.5173825,35.5685197 L44.4943706,74.2239381 C44.4943706,74.2239381 9.30049647,42.6185672 7.44711676,33.2965994 Z" id="path-28"></path><linearGradient x1="76.2362807%" y1="79.3277222%" x2="67.0850084%" y2="60.3606767%" id="linearGradient-30"><stop stop-color="#B1C2E4" offset="0%"></stop><stop stop-color="#FFFFFF" stop-opacity="0" offset="100%"></stop></linearGradient><path d="M65.9090356,0.694706773 C65.9090356,0.694706773 79.0383064,2.83764516 79.9427263,4.48494328 C88.4805952,10.7041047 96.6950523,29.2132367 100.202458,38.8021508 C103.709864,48.3910649 110.435696,58.2936753 116.498724,65.9929608 C122.561606,73.6922463 125.469988,75.2807264 133.414063,80.9773219 C141.358139,86.6739175 144.276255,91.1934981 139.780453,95.4402935 C135.284651,99.6872196 109.395577,98.0380916 90.9658975,121.130981 C74.865916,127.750236 74.8858206,130.170927 70.1022022,115.868071 C65.3187291,101.565215 25.9853996,65.8036974 19.6056436,60.7629887 C13.2257423,55.72228 15.6904136,50.8789386 14.0823623,35.4397177 C12.474311,20.0006276 0.874635769,7.48218147 10.6311832,7.48218147 C18.3199871,10.3523726 25.809746,4.48494328 29.190315,4.48494328 C41.5071335,7.56021345 44.3117795,19.7173859 49.4249118,17.1679493 C54.5380441,14.6185127 57.8119714,14.6185127 57.8119714,14.6185127 C59.0049339,17.0458691 59.3886404,21.2033918 60.5816029,23.6307482 C61.7747107,26.0581047 66.766382,30.9266725 68.9846443,35.4397177 L65.0631669,22.3065574 L66.157188,14.4538221 L65.9090356,0.694706773 Z" id="path-31"></path><linearGradient x1="43.7493467%" y1="34.8752458%" x2="60.8216517%" y2="47.9427774%" id="linearGradient-33"><stop stop-color="#3D9BF8" offset="0%"></stop><stop stop-color="#3B80F0" offset="100%"></stop></linearGradient><linearGradient x1="0.286217704%" y1="50%" x2="68.0198528%" y2="59.4394578%" id="linearGradient-34"><stop stop-color="#FF9988" offset="0%"></stop><stop stop-color="#FFC1BD" offset="100%"></stop></linearGradient><linearGradient x1="-1.11022302e-14%" y1="50%" x2="68.1235987%" y2="51.1668134%" id="linearGradient-35"><stop stop-color="#FF9988" offset="0%"></stop><stop stop-color="#FFC1BD" offset="100%"></stop></linearGradient><path d="M33.9144634,28.2140484 C43.2671969,32.0117025 73.5560936,16.8952949 83.167763,18.2377193 C92.0030895,19.4718205 80.7923564,5.61490378 77.4743341,3.16281107 C74.1563118,0.710783713 7.81380315,1.82208581 4.33155267,6.93971547 C0.849395126,12.0573778 26.1581913,25.0645368 33.9144634,28.2140484 Z" id="path-36"></path><linearGradient x1="85.0861044%" y1="19.1840632%" x2="28.892985%" y2="50%" id="linearGradient-38"><stop stop-color="#2669E1" offset="0%"></stop><stop stop-color="#143B8C" offset="100%"></stop></linearGradient><path d="M166.088942,68.559302 C166.088942,68.559302 161.574724,61.6807611 165.064324,54.8585661 C168.553923,48.036371 186.976338,57.1357671 201.895794,40.3155366 C216.815171,23.4952026 203.558536,0.796182945 188.22041,5.22321238 C172.882206,9.65024182 176.643355,17.5799179 179.42392,23.4952026 C182.204326,29.4104873 167.898091,31.6321695 157.667483,35.7960792 C147.436875,39.9600922 139.086248,51.1641366 140.888994,68.559302 C142.691741,85.9544675 158.783171,100.197261 163.904523,102.817914 C162.415384,92.5382522 162.349137,87.8152259 162.349137,84.9522343 C156.474559,87.6743095 149.632124,74.1748679 153.615889,70.6234226 C161.226096,63.8390672 165.064324,79.2915917 165.064324,79.2915917 C165.064324,79.2915917 166.088942,77.0914139 167.898091,75.0062024 C167.20882,71.2845822 166.088942,68.559302 166.088942,68.559302 Z" id="path-39"></path><filter x="-7.8%" y="-3.7%" width="107.2%" height="111.4%" id="filter-40"><feGaussianBlur stdDeviation="5.5" in="SourceAlpha" result="shadowBlurInner1"></feGaussianBlur><feOffset dx="6" dy="6" in="shadowBlurInner1" result="shadowOffsetInner1"></feOffset><feComposite in="shadowOffsetInner1" in2="SourceAlpha" operator="arithmetic" k2="-1" k3="1" result="shadowInnerInner1"></feComposite><feColorMatrix values="0 0 0 0 0 0 0 0 0 0 0 0 0 0 0 0 0 0 0.13988904 0" type="matrix" in="shadowInnerInner1"></feColorMatrix></filter><linearGradient x1="37.1303052%" y1="57.5324188%" x2="50%" y2="33.7873003%" id="linearGradient-41"><stop stop-color="#EEF5FF" offset="0%"></stop><stop stop-color="#ADC8F2" offset="100%"></stop></linearGradient><linearGradient x1="86.4839741%" y1="16.2692604%" x2="57.6802826%" y2="80.0144172%" id="linearGradient-42"><stop stop-color="#F5F8FF" offset="0%"></stop><stop stop-color="#FFFFFF" offset="100%"></stop></linearGradient><path d="M135.097149,111.442455 C119.299082,102.733036 87.7414926,77.9723977 79.4469363,79.9933192 C71.1524702,82.0142406 73.3049836,85.7684534 73.3049836,94.3794914 C73.3049836,102.990621 116.654049,132.07029 123.328511,146.459302 C126.18568,152.618797 133.50558,167.833967 146.608425,165.354761 C159.711179,162.875555 155.736363,149.818527 152.912414,139.286872 C149.592966,126.907239 144.8253,116.805564 135.097149,111.442455 Z" id="path-43"></path><filter x="-6.6%" y="-6.3%" width="110.5%" height="112.2%" id="filter-44"><feGaussianBlur stdDeviation="3" in="SourceAlpha" result="shadowBlurInner1"></feGaussianBlur><feOffset dx="11" dy="-5" in="shadowBlurInner1" result="shadowOffsetInner1"></feOffset><feComposite in="shadowOffsetInner1" in2="SourceAlpha" operator="arithmetic" k2="-1" k3="1" result="shadowInnerInner1"></feComposite><feColorMatrix values="0 0 0 0 0.898039216 0 0 0 0 0.941176471 0 0 0 0 1 0 0 0 1 0" type="matrix" in="shadowInnerInner1"></feColorMatrix></filter><path d="M119.514705,170.403218 C191.801221,215.702897 266.457099,220.653305 291.559304,180.366201 C321.705759,121.636086 218.335883,147.048074 146.049367,101.748394 C73.7625281,56.4489365 75.5492284,18.6368149 25.6877701,0.628977847 C0.585888025,40.9163032 47.2278659,125.10376 119.514705,170.403218 Z" id="path-45"></path><path d="M-9.79091244,113.217294 C27.9389321,137.789838 71.1593094,138.199067 86.7441523,114.131391 C102.329165,90.0637143 84.3769887,50.6330148 46.6471441,26.0604703 C8.91729956,1.48792578 -34.3030777,1.07855843 -49.8880899,25.1463732 C-65.4729329,49.2140497 -47.5209263,88.6447493 -9.79091244,113.217294 Z" id="path-47"></path><filter x="-3.7%" y="-7.4%" width="107.4%" height="114.7%" id="filter-48"><feGaussianBlur stdDeviation="6" in="SourceAlpha" result="shadowBlurInner1"></feGaussianBlur><feOffset dx="-13" dy="-22" in="shadowBlurInner1" result="shadowOffsetInner1"></feOffset><feComposite in="shadowOffsetInner1" in2="SourceAlpha" operator="arithmetic" k2="-1" k3="1" result="shadowInnerInner1"></feComposite><feColorMatrix values="0 0 0 0 0.5803922 0 0 0 0 0.6745098 0 0 0 0 0.85490197 0 0 0 0.43 0" type="matrix" in="shadowInnerInner1"></feColorMatrix></filter><path d="M122.574231,211.159469 C150.37983,198.156205 159.024122,157.727494 141.881552,120.859464 C124.738981,83.9914331 88.3012122,64.6452787 60.4954769,77.6485427 C32.6897415,90.6518067 24.0455851,131.080518 41.1881556,167.948548 C58.3307261,204.816579 94.7684954,224.162733 122.574231,211.159469 Z" id="path-49"></path><filter x="-2.7%" y="-1.6%" width="105.2%" height="103.3%" id="filter-50"><feGaussianBlur stdDeviation="6" in="SourceAlpha" result="shadowBlurInner1"></feGaussianBlur><feOffset dx="-7" dy="-13" in="shadowBlurInner1" result="shadowOffsetInner1"></feOffset><feComposite in="shadowOffsetInner1" in2="SourceAlpha" operator="arithmetic" k2="-1" k3="1" result="shadowInnerInner1"></feComposite><feColorMatrix values="0 0 0 0 0.5803922 0 0 0 0 0.6745098 0 0 0 0 0.85490197 0 0 0 0.43 0" type="matrix" in="shadowInnerInner1"></feColorMatrix></filter><path d="M194.684249,273.298779 C222.489848,260.295515 231.134141,219.866804 213.991571,182.998774 C196.849,146.130743 160.411231,126.784589 132.605495,139.787853 C104.79976,152.791117 96.1556037,193.219828 113.298174,230.087858 C130.440745,266.955889 166.878514,286.302043 194.684249,273.298779 Z" id="path-51"></path><filter x="-2.7%" y="-1.6%" width="105.2%" height="103.3%" id="filter-52"><feGaussianBlur stdDeviation="6" in="SourceAlpha" result="shadowBlurInner1"></feGaussianBlur><feOffset dx="-13" dy="-6" in="shadowBlurInner1" result="shadowOffsetInner1"></feOffset><feComposite in="shadowOffsetInner1" in2="SourceAlpha" operator="arithmetic" k2="-1" k3="1" result="shadowInnerInner1"></feComposite><feColorMatrix values="0 0 0 0 0.5803922 0 0 0 0 0.6745098 0 0 0 0 0.85490197 0 0 0 0.43 0" type="matrix" in="shadowInnerInner1"></feColorMatrix></filter><path d="M329.289481,294.190444 C357.095216,281.18718 365.739373,240.758469 348.596939,203.890438 C331.454368,167.022408 295.016463,147.676253 267.210863,160.679517 C239.405128,173.682781 230.760972,214.111492 247.903542,250.979523 C265.046113,287.847553 301.483882,307.193708 329.289481,294.190444 Z" id="path-53"></path><filter x="-0.1%" y="0.5%" width="100.1%" height="99.0%" id="filter-54"><feGaussianBlur stdDeviation="6" in="SourceAlpha" result="shadowBlurInner1"></feGaussianBlur><feOffset dx="-5" dy="6" in="shadowBlurInner1" result="shadowOffsetInner1"></feOffset><feComposite in="shadowOffsetInner1" in2="SourceAlpha" operator="arithmetic" k2="-1" k3="1" result="shadowInnerInner1"></feComposite><feColorMatrix values="0 0 0 0 0.5803922 0 0 0 0 0.6745098 0 0 0 0 0.85490197 0 0 0 0.43 0" type="matrix" in="shadowInnerInner1"></feColorMatrix></filter><path d="M234.045618,253.333095 C264.497251,257.082799 291.500124,241.197288 294.358384,217.851891 C297.216643,194.506494 274.847763,172.541522 244.396247,168.791818 C213.944731,165.042115 186.941858,180.927625 184.083716,204.272929 C181.225456,227.618326 203.594219,249.583299 234.045618,253.333095 Z" id="path-55"></path><filter x="-7.0%" y="-8.3%" width="113.8%" height="116.6%" id="filter-56"><feGaussianBlur stdDeviation="6" in="SourceAlpha" result="shadowBlurInner1"></feGaussianBlur><feOffset dx="-11" dy="1" in="shadowBlurInner1" result="shadowOffsetInner1"></feOffset><feComposite in="shadowOffsetInner1" in2="SourceAlpha" operator="arithmetic" k2="-1" k3="1" result="shadowInnerInner1"></feComposite><feColorMatrix values="0 0 0 0 0.5803922 0 0 0 0 0.6745098 0 0 0 0 0.85490197 0 0 0 0.43 0" type="matrix" in="shadowInnerInner1"></feColorMatrix></filter><linearGradient x1="74.3666468%" y1="0%" x2="50%" y2="100%" id="linearGradient-57"><stop stop-color="#EEF5FF" offset="0%"></stop><stop stop-color="#D9E8FF" offset="100%"></stop></linearGradient></defs><g id="Page-1" stroke="none" stroke-width="1" fill="none" fill-rule="evenodd"><g id="Services-" transform="translate(-791.000000, -90.000000)"><g id="Award-Illustration" filter="url(#filter-1)" transform="translate(799.000000, 116.000000)"><g id="Artwork" transform="translate(305.000000, 251.500000) scale(-1, 1) translate(-305.000000, -251.500000) "><g id="message" transform="translate(0.854637, 3.029752)"><g id="Group-71"><path d="M105.145363,29.9702484 C-100.854637,47.9702484 42.1453627,339.970248 159.145363,202.970248 C330.145363,29.9702484 485.674836,172.716114 485.674836,172.716114" id="line" stroke="#030446" stroke-width="2.67478837" fill-opacity="0" fill="#FFFFFF" opacity="0.300000012" stroke-linecap="round" stroke-dasharray="2.674788451862639,10.69915380745056"></path><g id="Group-62" transform="translate(103.821793, 0.698346)"><mask id="mask-4" fill="white"><use xlink:href="#path-3"></use></mask><use id="Ellipse-4" fill="url(#linearGradient-2)" xlink:href="#path-3"></use><polyline id="Shape-8" stroke="#355082" stroke-width="3.20974605" stroke-linecap="round" stroke-linejoin="round" mask="url(#mask-4)" points="32.3667621 11.5961517 32.3667621 35.4928514 43.2712108 46.4286334"></polyline></g><g id="Group-44" transform="translate(477.835167, 157.885652)"><polygon id="Shape-5" fill="url(#linearGradient-5)" points="0.781403235 37.0243145 11.9084753 22.4468148 47.9753518 45.0803107 20.3496159 13.2399793 33.7788665 0.580565309 67.5436323 60.0414033"></polygon><g id="Group-39" transform="translate(10.467664, 12.320461)" fill="#BF8F3B"><polygon id="Shape-6" points="1.05713784 10.5099668 9.49832059 9.35910122 39.04248 33.910716"></polygon><polygon id="Shape-7" points="9.11463814 9.3590814 10.2656663 0.919498147 38.2751236 33.1434412"></polygon></g></g></g><g id="rocket" transform="translate(567.843962, 237.561001)"></g></g><g id="Person" transform="translate(12.038186, 124.756645)"><path d="M212.056869,368.795234 C328.452897,368.795234 322.62553,374.212074 322.62553,361.571212 C322.62553,348.930349 273.241872,332.123861 212.323961,332.123861 C151.406049,332.123861 101.759327,349.293462 102.022391,361.571212 C102.285454,373.848961 95.6608415,368.795234 212.056869,368.795234 Z" id="chair-shadow" fill="url(#radialGradient-6)"></path><path d="M135.982766,340.577139 C203.578191,373.096464 302.824617,368.801135 347.343798,280.551349 C376.755377,223.768297 314.002845,155.774558 245.073586,108.495388 C183.208513,66.0620255 128.182931,56.4394565 95.8967341,80.3283486 C92.209807,83.056244 85.6565709,82.5200835 82.6796124,86.2318413 C0.731116534,180.040195 68.3877192,308.057495 135.982766,340.577139 Z" id="chair" fill="url(#radialGradient-7)"></path><path d="M177.736705,259.326717 C250.023381,304.626401 324.679247,309.57672 349.781303,269.289698 C373.072295,225.763935 316.568123,147.044755 244.281447,101.745071 C171.994772,56.445649 109.012182,49.2653559 83.9098093,89.5526394 C58.8080683,129.839661 105.45003,214.027295 177.736705,259.326717 Z" id="cushion" fill="url(#radialGradient-8)"></path><path d="M194.072658,227.547315 C226.484183,247.870386 259.957994,250.091277 271.213125,232.017068 C281.656219,212.489842 256.321171,177.173582 223.909645,156.850511 C191.498119,136.527559 163.258311,133.30622 152.003039,151.380547 C140.74805,169.454757 161.661132,207.224363 194.072658,227.547315 Z" id="shadow" fill="#94B0D7" filter="url(#filter-9)"></path><g id="shoe" transform="translate(399.008769, 334.266634)"><mask id="mask-13" fill="white"><use xlink:href="#path-12"></use></mask><g id="Path-17"><use fill="url(#linearGradient-10)" xlink:href="#path-12"></use><use fill="url(#linearGradient-11)" xlink:href="#path-12"></use></g><path d="M3.37024512,33.7286096 C6.71459234,25.0868527 19.7488693,8.96460324 23.5253863,3.717838 C26.0430642,0.219994504 17.7014575,2.28123583 -1.49943404,9.90156196 C-0.482546076,31.5474317 1.14068031,39.4897809 3.37024512,33.7286096 Z" id="Path-21" fill="#3D82F0" style="mix-blend-mode: multiply;" opacity="0.200000003" mask="url(#mask-13)"></path></g><g id="shoe" transform="translate(420.908849, 185.882247)"><mask id="mask-17" fill="white"><use xlink:href="#path-16"></use></mask><g id="Path-17-Copy"><use fill="url(#linearGradient-14)" xlink:href="#path-16"></use><use fill="url(#linearGradient-15)" xlink:href="#path-16"></use></g><path d="M16.9094395,48.5538715 C11.7346739,37.802099 17.0646051,13.5444183 14.7042033,11.3962846 C13.1306021,9.96419547 8.49636344,15.7507643 0.801487219,28.755991 C-2.85839374,32.3967815 -1.7478138,36.939021 4.13322703,42.3827094 C12.9547883,50.548242 22.0842052,59.3056441 16.9094395,48.5538715 Z" id="Path-19" fill="#617FC8" style="mix-blend-mode: multiply;" opacity="0.200000003" mask="url(#mask-17)"></path></g><g id="sleeve"><use fill="url(#linearGradient-18)" fill-rule="evenodd" xlink:href="#path-19"></use><use fill="black" fill-opacity="1" filter="url(#filter-20)" xlink:href="#path-19"></use></g><path d="M198.694736,67.0982049 C198.694736,67.0982049 255.594741,44.5308381 263.286912,46.0227868 C270.97901,47.5146917 247.988844,73.8119084 243.285024,75.9338448 C238.581204,78.055869 232.187977,83.2327314 225.113462,83.417133 C218.038948,83.6016225 201.777381,87.114302 201.777381,87.114302 L198.694736,67.0982049 Z" id="arm" fill="url(#linearGradient-21)"></path><g id="leg" transform="translate(205.112942, 185.346563)"><mask id="mask-24" fill="white"><use xlink:href="#path-23"></use></mask><g id="Path-7"><use fill="url(#linearGradient-22)" fill-rule="evenodd" xlink:href="#path-23"></use><use fill="black" fill-opacity="1" filter="url(#filter-25)" xlink:href="#path-23"></use></g><path d="M134.640948,67.2142797 C134.640948,58.8321662 155.805041,14.5928679 161.472296,9.86339942 C165.250466,6.71042041 161.529465,5.36835313 150.309294,5.83719758 C124.748541,32.4434801 110.289871,52.9025075 106.933284,67.2142797 C101.898403,88.681938 134.640948,75.5963932 134.640948,67.2142797 Z" id="Path" fill="url(#linearGradient-26)" style="mix-blend-mode: multiply;" opacity="0.300000012" mask="url(#mask-24)"></path></g><g id="neck" transform="translate(159.176189, 81.423924)"><mask id="mask-29" fill="white"><use xlink:href="#path-28"></use></mask><use id="Path-4" fill="url(#linearGradient-27)" xlink:href="#path-28"></use><path d="M3.191667,5.11486125 C3.191667,8.62423422 16.3130241,23.6314213 23.401598,27.7453772 C28.1273139,30.4880144 34.7472424,31.7322597 43.2613835,31.4781129 L41.3157734,11.2691503 L3.191667,1.61510007 C3.191667,1.6086922 3.191667,2.77527926 3.191667,5.11486125 Z" id="Path-22" fill="#7890CB" style="mix-blend-mode: multiply;" opacity="0.200000003" mask="url(#mask-29)"></path></g><g id="shirt" transform="translate(130.866330, 106.065374)"><mask id="mask-32" fill="white"><use xlink:href="#path-31"></use></mask><g id="Path-9"><use fill="#FFFFFF" xlink:href="#path-31"></use><use fill="url(#linearGradient-30)" xlink:href="#path-31"></use></g><path d="M66.7685613,35.3550883 C67.9285605,37.6876609 80.6286667,60.0020692 83.3271155,63.2107182 C86.0256241,66.4192344 94.8715897,75.3607404 98.2832675,78.7454815 C101.694945,82.130289 122.605859,95.458421 122.854072,99.6371375" id="Shape-1" stroke="#D9E8FF" stroke-width="2.1398307" fill-opacity="0" fill="#000000" opacity="0.6" mask="url(#mask-32)"></path><path d="M50.6928445,31.1676554 C54.5792927,24.0794277 57.6541047,20.5353139 59.9172805,20.5353139 C62.1804564,20.5353139 61.7842956,17.0888932 58.7287983,10.1960519 L48.1433077,18.224155 L50.6928445,31.1676554 Z" id="Path-23" fill="#CCDFFD" opacity="0.300000012" mask="url(#mask-32)"></path></g><path d="M269.172044,195.661371 C288.521779,177.848902 343.907222,143.374707 375.491923,138.110278 C393.585614,141.12862 440.672318,192.310507 440.672318,192.310507 C438.549109,194.554203 432.952677,214.448159 424.113614,220.701653 C401.852193,202.168874 378.642638,193.515319 372.410316,183.932615 C364.63662,188.678666 344.653732,202.538329 333.159802,222.900048 C321.6661,243.261767 314.041114,266.459426 300.942632,267.040111 C287.84415,267.620796 269.3723,269.121067 252.356521,258.141449 C242.474214,251.764537 214.022666,237.550697 227.84485,228.237412 C235.766342,222.900048 261.060104,203.128712 269.172044,195.661371 Z" id="leg" fill="url(#linearGradient-33)"></path><path d="M193.747529,47.0011424 C195.058148,50.3181843 202.248912,64.8758771 202.941565,68.504575 C203.634155,72.1334003 210.47729,96.3385949 206.40089,100.066036 C202.324426,103.793604 190.100628,105.680879 186.684591,104.487229 C183.26849,103.293642 175.9246,102.529004 173.064046,97.4944439 C170.865633,93.6251035 163.881006,84.64305 162.048911,85.1573556 C161.379586,86.5368906 159.046609,88.0108978 157.878373,87.0638818 C152.830657,82.9720666 148.503816,78.5405471 150.557684,68.504575 C152.611553,58.4686666 159.812424,53.517168 167.532991,50.2591552 C175.253559,47.0011424 192.436847,43.6841643 193.747529,47.0011424 Z" id="face" fill="url(#linearGradient-34)"></path><g id="arm" transform="translate(71.575870, 74.460035)"><mask id="mask-37" fill="white"><use xlink:href="#path-36"></use></mask><use id="Path-13" fill="url(#linearGradient-35)" xlink:href="#path-36"></use><path d="M15.4995481,7.41698534 C17.4659763,8.13457093 57.3557907,25.5673816 67.2250376,23.1526879 C73.8045354,21.542892 65.6065144,24.5857309 42.6309743,32.2812045 C23.2324047,15.226668 14.1885959,6.93859494 15.4995481,7.41698534 Z" id="Path-24" fill="#6B84C2" opacity="0.5" mask="url(#mask-37)"></path></g><g id="hair"><use fill="url(#linearGradient-38)" fill-rule="evenodd" xlink:href="#path-39"></use><use fill="black" fill-opacity="1" filter="url(#filter-40)" xlink:href="#path-39"></use></g><path d="M197.094436,120.15163 C201.765253,121.815721 202.660037,130.467725 203.461879,132.907767 C204.263657,135.347774 200.095569,113.783119 200.095569,113.783119 C198.62898,115.811839 195.491382,102.040263 196.081274,104.060034 C197.667459,109.490788 196.338573,115.642582 197.094436,120.15163 Z" id="colar" fill="#CCDFFD"></path><path d="M181.854107,141.952307 C181.854107,134.287917 184.892146,124.238314 188.642996,120.65288 C183.203433,120.989546 167.202118,111.401791 165.494102,106.057311 C163.786117,100.712788 163.468743,99.9490736 163.468743,99.9490736 C163.468743,99.9490736 160.174772,106.340997 160.174772,110.395004 C162.505478,119.190277 172.903825,134.458571 181.854107,141.952307 Z" id="colar" fill="url(#linearGradient-41)"></path><g id="sleeve"><use fill="url(#linearGradient-42)" fill-rule="evenodd" xlink:href="#path-43"></use><use fill="black" fill-opacity="1" filter="url(#filter-44)" xlink:href="#path-43"></use></g><g id="glasses" transform="translate(160.778634, 51.961320)"><path d="M16.7946135,16.9095955 C19.5594152,17.6472802 23.0157435,17.1074824 24.8631712,15.0850246" id="Path-18" stroke="#143B8C" stroke-width="1.60487302" fill-opacity="0" fill="#000000" stroke-linecap="round"></path><path d="M38.9781117,11.0170693 C41.3659052,11.754754 44.3509566,11.2149563 45.9464116,9.19249849" id="Path-18-Copy" stroke="#143B8C" stroke-width="1.60487302" fill-opacity="0" fill="#000000" stroke-linecap="round"></path><polygon id="Path-14" stroke="#143B8C" stroke-width="2.1398307" fill-opacity="0" fill="#000000" points="10.6829166 12.5647581 13.6532831 25.7203508 30.1997185 21.7376404 27.7071113 8.03523419"></polygon><polygon id="Path-14-Copy" stroke="#143B8C" stroke-width="2.1398307" fill-opacity="0" fill="#000000" points="34.863318 5.84238079 37.5579637 19.2845921 49.9475802 15.721224 47.6862677 2.26894191"></polygon><polygon id="Path-15" fill="#143B8C" points="10.3493768 14.2197872 0.593478806 16.8981865 2.22458072 20.1636319 12.7685477 22.6599672"></polygon><polygon id="Path-16" fill="#143B8C" points="28.2555208 12.1838024 35.6995363 9.88399866 36.5186981 13.8255187 28.7896733 15.9866853"></polygon></g><g id="cushion" transform="translate(58.222163, 88.923495)"><g id="Mask-by-Oval"><g id="Oval-3-+-Oval-3-Copy-+-Oval-3-Copy-2-+-Oval-3-Copy-4-+-Oval-3-Copy-3-Mask"><mask id="mask-46" fill="white"><use xlink:href="#path-45"></use></mask><use id="Mask" fill-opacity="0" fill="#000000" xlink:href="#path-45"></use><g id="Oval-3" mask="url(#mask-46)"><use fill="#EEF5FF" fill-rule="evenodd" xlink:href="#path-47"></use><use fill="black" fill-opacity="1" filter="url(#filter-48)" xlink:href="#path-47"></use></g><g id="Oval-3-Copy" mask="url(#mask-46)"><use fill="#EEF5FF" fill-rule="evenodd" xlink:href="#path-49"></use><use fill="black" fill-opacity="1" filter="url(#filter-50)" xlink:href="#path-49"></use></g><g id="Oval-3-Copy-2" mask="url(#mask-46)"><use fill="#EEF5FF" fill-rule="evenodd" xlink:href="#path-51"></use><use fill="black" fill-opacity="1" filter="url(#filter-52)" xlink:href="#path-51"></use></g><g id="Oval-3-Copy-4" mask="url(#mask-46)"><use fill="#EEF5FF" fill-rule="evenodd" xlink:href="#path-53"></use><use fill="black" fill-opacity="1" filter="url(#filter-54)" xlink:href="#path-53"></use></g><g id="Oval-3-Copy-3" mask="url(#mask-46)"><use fill="#EEF5FF" fill-rule="evenodd" xlink:href="#path-55"></use><use fill="black" fill-opacity="1" filter="url(#filter-56)" xlink:href="#path-55"></use></g></g></g></g><path d="M208.482323,144.393348 C208.482323,144.393348 221.12487,141.99581 222.640988,140.290602 C224.157157,138.585394 232.719315,158.286444 232.719315,158.286444 L228.561829,163.019521 L218.652182,163.019521 L208.482323,144.393348 Z" id="pocket" fill="url(#linearGradient-57)"></path></g><g id="Clock" opacity="0.600000024" transform="translate(49.448355, 0.315362)"><g id="Ellipse-4"></g></g></g></g></g></g></svg> 